<?xml version="1.0" encoding="utf-8" standalone="no"?>
<!DOCTYPE svg PUBLIC "-//W3C//DTD SVG 1.1//EN"
  "http://www.w3.org/Graphics/SVG/1.1/DTD/svg11.dtd">
<svg xmlns:xlink="http://www.w3.org/1999/xlink" width="1394.338125pt" height="411.695625pt" viewBox="0 0 1394.338125 411.695625" xmlns="http://www.w3.org/2000/svg" version="1.1">
 <metadata>
  <rdf:RDF xmlns:dc="http://purl.org/dc/elements/1.1/" xmlns:cc="http://creativecommons.org/ns#" xmlns:rdf="http://www.w3.org/1999/02/22-rdf-syntax-ns#">
   <cc:Work>
    <dc:type rdf:resource="http://purl.org/dc/dcmitype/StillImage"/>
    <dc:date>2026-05-10T20:42:49.719114</dc:date>
    <dc:format>image/svg+xml</dc:format>
    <dc:creator>
     <cc:Agent>
      <dc:title>Matplotlib v3.10.9, https://matplotlib.org/</dc:title>
     </cc:Agent>
    </dc:creator>
   </cc:Work>
  </rdf:RDF>
 </metadata>
 <defs>
  <style type="text/css">*{stroke-linejoin: round; stroke-linecap: butt}</style>
 </defs>
 <g id="figure_1">
  <g id="patch_1">
   <path d="M 0 411.695625 
L 1394.338125 411.695625 
L 1394.338125 0 
L 0 0 
z
" style="fill: #ffffff"/>
  </g>
  <g id="axes_1">
   <g id="patch_2">
    <path d="M 25.928125 384.92 
L 428.031458 384.92 
L 428.031458 139.12 
L 25.928125 139.12 
z
" style="fill: #ffffff"/>
   </g>
   <g id="patch_3">
    <path d="M 44.205549 384.92 
L 88.514456 384.92 
L 88.514456 231.853949 
L 44.205549 231.853949 
z
" clip-path="url(#pff5df4c0f4)" style="fill: #7ea8be; stroke: #ffffff; stroke-linejoin: miter"/>
   </g>
   <g id="patch_4">
    <path d="M 182.670884 384.92 
L 226.979792 384.92 
L 226.979792 184.300283 
L 182.670884 184.300283 
z
" clip-path="url(#pff5df4c0f4)" style="fill: #7ea8be; stroke: #ffffff; stroke-linejoin: miter"/>
   </g>
   <g id="patch_5">
    <path d="M 321.13622 384.92 
L 365.445127 384.92 
L 365.445127 180.086667 
L 321.13622 180.086667 
z
" clip-path="url(#pff5df4c0f4)" style="fill: #7ea8be; stroke: #ffffff; stroke-linejoin: miter"/>
   </g>
   <g id="patch_6">
    <path d="M 88.514456 384.92 
L 132.823364 384.92 
L 132.823364 324.12354 
L 88.514456 324.12354 
z
" clip-path="url(#pff5df4c0f4)" style="fill: #e8a87c; stroke: #ffffff; stroke-linejoin: miter"/>
   </g>
   <g id="patch_7">
    <path d="M 226.979792 384.92 
L 271.288699 384.92 
L 271.288699 202.573617 
L 226.979792 202.573617 
z
" clip-path="url(#pff5df4c0f4)" style="fill: #e8a87c; stroke: #ffffff; stroke-linejoin: miter"/>
   </g>
   <g id="patch_8">
    <path d="M 365.445127 384.92 
L 409.754034 384.92 
L 409.754034 200.939766 
L 365.445127 200.939766 
z
" clip-path="url(#pff5df4c0f4)" style="fill: #e8a87c; stroke: #ffffff; stroke-linejoin: miter"/>
   </g>
   <g id="matplotlib.axis_1">
    <g id="xtick_1">
     <g id="line2d_1">
      <defs>
       <path id="mca493a209a" d="M 0 0 
L 0 3.5 
" style="stroke: #000000; stroke-width: 0.8"/>
      </defs>
      <g>
       <use xlink:href="#mca493a209a" x="88.514456" y="384.92" style="stroke: #000000; stroke-width: 0.8"/>
      </g>
     </g>
     <g id="text_1">
      <!-- HSK 1 -->
      <g transform="translate(71.307581 401.5125) scale(0.12 -0.12)">
       <defs>
        <path id="MicrosoftYaHei-48" d="M 4325 0 
L 3700 0 
L 3700 2181 
L 1250 2181 
L 1250 0 
L 625 0 
L 625 4841 
L 1250 4841 
L 1250 2738 
L 3700 2738 
L 3700 4841 
L 4325 4841 
L 4325 0 
z
" transform="scale(0.015625)"/>
        <path id="MicrosoftYaHei-53" d="M 400 909 
Q 622 716 994 591 
Q 1366 466 1700 466 
Q 2719 466 2719 1191 
Q 2719 1394 2609 1556 
Q 2500 1719 2309 1844 
Q 2119 1969 1594 2228 
Q 866 2591 634 2902 
Q 403 3213 403 3613 
Q 403 4216 887 4569 
Q 1372 4922 2109 4922 
Q 2831 4922 3169 4747 
L 3169 4066 
Q 2731 4369 2063 4369 
Q 1619 4369 1339 4183 
Q 1059 3997 1059 3666 
Q 1059 3372 1253 3187 
Q 1447 3003 2094 2684 
Q 2806 2344 3090 2003 
Q 3375 1663 3375 1238 
Q 3375 600 2912 259 
Q 2450 -81 1628 -81 
Q 1341 -81 958 -1 
Q 575 78 400 197 
L 400 909 
z
" transform="scale(0.015625)"/>
        <path id="MicrosoftYaHei-4b" d="M 4069 0 
L 3213 0 
L 1394 2200 
Q 1300 2316 1266 2381 
L 1250 2381 
L 1250 0 
L 625 0 
L 625 4841 
L 1250 4841 
L 1250 2563 
L 1266 2563 
Q 1319 2647 1394 2741 
L 3150 4841 
L 3922 4841 
L 1891 2519 
L 4069 0 
z
" transform="scale(0.015625)"/>
        <path id="MicrosoftYaHei-20" transform="scale(0.015625)"/>
        <path id="MicrosoftYaHei-31" d="M 1781 0 
L 1781 4141 
Q 1638 3997 1295 3819 
Q 953 3641 663 3569 
L 663 4169 
Q 1047 4275 1484 4508 
Q 1922 4741 2156 4947 
L 2388 4947 
L 2388 0 
L 1781 0 
z
" transform="scale(0.015625)"/>
       </defs>
       <use xlink:href="#MicrosoftYaHei-48"/>
       <use xlink:href="#MicrosoftYaHei-53" transform="translate(77.34375 0)"/>
       <use xlink:href="#MicrosoftYaHei-4b" transform="translate(135.058594 0)"/>
       <use xlink:href="#MicrosoftYaHei-20" transform="translate(198.535156 0)"/>
       <use xlink:href="#MicrosoftYaHei-31" transform="translate(228.125 0)"/>
      </g>
     </g>
    </g>
    <g id="xtick_2">
     <g id="line2d_2">
      <g>
       <use xlink:href="#mca493a209a" x="226.979792" y="384.92" style="stroke: #000000; stroke-width: 0.8"/>
      </g>
     </g>
     <g id="text_2">
      <!-- HSK 2 -->
      <g transform="translate(209.772917 401.5125) scale(0.12 -0.12)">
       <defs>
        <path id="MicrosoftYaHei-32" d="M 2666 3572 
Q 2666 3963 2419 4186 
Q 2172 4409 1747 4409 
Q 1447 4409 1140 4256 
Q 834 4103 569 3819 
L 569 4413 
Q 806 4659 1107 4790 
Q 1409 4922 1816 4922 
Q 2472 4922 2872 4570 
Q 3272 4219 3272 3619 
Q 3272 3084 3026 2693 
Q 2781 2303 2188 1894 
Q 1581 1475 1376 1294 
Q 1172 1113 1090 947 
Q 1009 781 1009 544 
L 3416 544 
L 3416 0 
L 372 0 
L 372 241 
Q 372 659 486 951 
Q 600 1244 862 1520 
Q 1125 1797 1681 2184 
Q 2250 2584 2458 2886 
Q 2666 3188 2666 3572 
z
" transform="scale(0.015625)"/>
       </defs>
       <use xlink:href="#MicrosoftYaHei-48"/>
       <use xlink:href="#MicrosoftYaHei-53" transform="translate(77.34375 0)"/>
       <use xlink:href="#MicrosoftYaHei-4b" transform="translate(135.058594 0)"/>
       <use xlink:href="#MicrosoftYaHei-20" transform="translate(198.535156 0)"/>
       <use xlink:href="#MicrosoftYaHei-32" transform="translate(228.125 0)"/>
      </g>
     </g>
    </g>
    <g id="xtick_3">
     <g id="line2d_3">
      <g>
       <use xlink:href="#mca493a209a" x="365.445127" y="384.92" style="stroke: #000000; stroke-width: 0.8"/>
      </g>
     </g>
     <g id="text_3">
      <!-- HSK 3 -->
      <g transform="translate(348.238252 401.5125) scale(0.12 -0.12)">
       <defs>
        <path id="MicrosoftYaHei-33" d="M 447 809 
Q 944 425 1569 425 
Q 2069 425 2361 670 
Q 2653 916 2653 1328 
Q 2653 2247 1338 2247 
L 934 2247 
L 934 2753 
L 1319 2753 
Q 2484 2753 2484 3616 
Q 2484 4413 1594 4413 
Q 1084 4413 634 4069 
L 634 4647 
Q 1109 4922 1744 4922 
Q 2363 4922 2738 4598 
Q 3113 4275 3113 3759 
Q 3113 2809 2144 2538 
L 2144 2525 
Q 2669 2469 2973 2155 
Q 3278 1841 3278 1372 
Q 3278 719 2808 319 
Q 2338 -81 1556 -81 
Q 869 -81 447 175 
L 447 809 
z
" transform="scale(0.015625)"/>
       </defs>
       <use xlink:href="#MicrosoftYaHei-48"/>
       <use xlink:href="#MicrosoftYaHei-53" transform="translate(77.34375 0)"/>
       <use xlink:href="#MicrosoftYaHei-4b" transform="translate(135.058594 0)"/>
       <use xlink:href="#MicrosoftYaHei-20" transform="translate(198.535156 0)"/>
       <use xlink:href="#MicrosoftYaHei-33" transform="translate(228.125 0)"/>
      </g>
     </g>
    </g>
   </g>
   <g id="matplotlib.axis_2">
    <g id="ytick_1">
     <g id="line2d_4">
      <path d="M 25.928125 384.92 
L 428.031458 384.92 
" clip-path="url(#pff5df4c0f4)" style="fill: none; stroke: #eeeeee; stroke-width: 0.5; stroke-linecap: square"/>
     </g>
     <g id="line2d_5">
      <defs>
       <path id="mab6613f3bb" d="M 0 0 
L -3.5 0 
" style="stroke: #000000; stroke-width: 0.8"/>
      </defs>
      <g>
       <use xlink:href="#mab6613f3bb" x="25.928125" y="384.92" style="stroke: #000000; stroke-width: 0.8"/>
      </g>
     </g>
     <g id="text_4">
      <!-- 0 -->
      <g transform="translate(13.064063 388.916875) scale(0.1 -0.1)">
       <defs>
        <path id="MicrosoftYaHei-30" d="M 284 2325 
Q 284 3606 709 4264 
Q 1134 4922 1941 4922 
Q 3478 4922 3478 2441 
Q 3478 1216 3045 567 
Q 2613 -81 1831 -81 
Q 1094 -81 689 534 
Q 284 1150 284 2325 
z
M 909 2353 
Q 909 425 1888 425 
Q 2850 425 2850 2384 
Q 2850 4413 1906 4413 
Q 909 4413 909 2353 
z
" transform="scale(0.015625)"/>
       </defs>
       <use xlink:href="#MicrosoftYaHei-30"/>
      </g>
     </g>
    </g>
    <g id="ytick_2">
     <g id="line2d_6">
      <path d="M 25.928125 341.923918 
L 428.031458 341.923918 
" clip-path="url(#pff5df4c0f4)" style="fill: none; stroke: #eeeeee; stroke-width: 0.5; stroke-linecap: square"/>
     </g>
     <g id="line2d_7">
      <g>
       <use xlink:href="#mab6613f3bb" x="25.928125" y="341.923918" style="stroke: #000000; stroke-width: 0.8"/>
      </g>
     </g>
     <g id="text_5">
      <!-- 10 -->
      <g transform="translate(7.2 345.920793) scale(0.1 -0.1)">
       <use xlink:href="#MicrosoftYaHei-31"/>
       <use xlink:href="#MicrosoftYaHei-30" transform="translate(58.642578 0)"/>
      </g>
     </g>
    </g>
    <g id="ytick_3">
     <g id="line2d_8">
      <path d="M 25.928125 298.927837 
L 428.031458 298.927837 
" clip-path="url(#pff5df4c0f4)" style="fill: none; stroke: #eeeeee; stroke-width: 0.5; stroke-linecap: square"/>
     </g>
     <g id="line2d_9">
      <g>
       <use xlink:href="#mab6613f3bb" x="25.928125" y="298.927837" style="stroke: #000000; stroke-width: 0.8"/>
      </g>
     </g>
     <g id="text_6">
      <!-- 20 -->
      <g transform="translate(7.2 302.924712) scale(0.1 -0.1)">
       <use xlink:href="#MicrosoftYaHei-32"/>
       <use xlink:href="#MicrosoftYaHei-30" transform="translate(58.642578 0)"/>
      </g>
     </g>
    </g>
    <g id="ytick_4">
     <g id="line2d_10">
      <path d="M 25.928125 255.931755 
L 428.031458 255.931755 
" clip-path="url(#pff5df4c0f4)" style="fill: none; stroke: #eeeeee; stroke-width: 0.5; stroke-linecap: square"/>
     </g>
     <g id="line2d_11">
      <g>
       <use xlink:href="#mab6613f3bb" x="25.928125" y="255.931755" style="stroke: #000000; stroke-width: 0.8"/>
      </g>
     </g>
     <g id="text_7">
      <!-- 30 -->
      <g transform="translate(7.2 259.92863) scale(0.1 -0.1)">
       <use xlink:href="#MicrosoftYaHei-33"/>
       <use xlink:href="#MicrosoftYaHei-30" transform="translate(58.642578 0)"/>
      </g>
     </g>
    </g>
    <g id="ytick_5">
     <g id="line2d_12">
      <path d="M 25.928125 212.935673 
L 428.031458 212.935673 
" clip-path="url(#pff5df4c0f4)" style="fill: none; stroke: #eeeeee; stroke-width: 0.5; stroke-linecap: square"/>
     </g>
     <g id="line2d_13">
      <g>
       <use xlink:href="#mab6613f3bb" x="25.928125" y="212.935673" style="stroke: #000000; stroke-width: 0.8"/>
      </g>
     </g>
     <g id="text_8">
      <!-- 40 -->
      <g transform="translate(7.2 216.932548) scale(0.1 -0.1)">
       <defs>
        <path id="MicrosoftYaHei-34" d="M 2906 4841 
L 2906 1644 
L 3631 1644 
L 3631 1138 
L 2906 1138 
L 2906 0 
L 2313 0 
L 2313 1138 
L 53 1138 
L 53 1616 
Q 656 2294 1265 3178 
Q 1875 4063 2272 4841 
L 2906 4841 
z
M 741 1644 
L 2313 1644 
L 2313 3950 
Q 1988 3366 1616 2817 
Q 1244 2269 741 1644 
z
" transform="scale(0.015625)"/>
       </defs>
       <use xlink:href="#MicrosoftYaHei-34"/>
       <use xlink:href="#MicrosoftYaHei-30" transform="translate(58.642578 0)"/>
      </g>
     </g>
    </g>
    <g id="ytick_6">
     <g id="line2d_14">
      <path d="M 25.928125 169.939591 
L 428.031458 169.939591 
" clip-path="url(#pff5df4c0f4)" style="fill: none; stroke: #eeeeee; stroke-width: 0.5; stroke-linecap: square"/>
     </g>
     <g id="line2d_15">
      <g>
       <use xlink:href="#mab6613f3bb" x="25.928125" y="169.939591" style="stroke: #000000; stroke-width: 0.8"/>
      </g>
     </g>
     <g id="text_9">
      <!-- 50 -->
      <g transform="translate(7.2 173.936466) scale(0.1 -0.1)">
       <defs>
        <path id="MicrosoftYaHei-35" d="M 3294 1494 
Q 3294 784 2823 350 
Q 2353 -84 1559 -84 
Q 878 -84 544 119 
L 544 744 
Q 1034 425 1544 425 
Q 2050 425 2361 704 
Q 2672 984 2672 1447 
Q 2672 1909 2348 2167 
Q 2025 2425 1434 2425 
Q 978 2425 613 2384 
L 791 4841 
L 3053 4841 
L 3053 4303 
L 1306 4303 
L 1206 2931 
L 1647 2950 
Q 2416 2950 2855 2567 
Q 3294 2184 3294 1494 
z
" transform="scale(0.015625)"/>
       </defs>
       <use xlink:href="#MicrosoftYaHei-35"/>
       <use xlink:href="#MicrosoftYaHei-30" transform="translate(58.642578 0)"/>
      </g>
     </g>
    </g>
   </g>
   <g id="patch_9">
    <path d="M 25.928125 384.92 
L 25.928125 139.12 
" style="fill: none; stroke: #cccccc; stroke-width: 0.8; stroke-linejoin: miter; stroke-linecap: square"/>
   </g>
   <g id="patch_10">
    <path d="M 25.928125 384.92 
L 428.031458 384.92 
" style="fill: none; stroke: #cccccc; stroke-width: 0.8; stroke-linejoin: miter; stroke-linecap: square"/>
   </g>
   <g id="text_10">
    <!-- 36 -->
    <g style="fill: #555555" transform="translate(60.49594 227.554341) scale(0.1 -0.1)">
     <defs>
      <path id="MicrosoftYaHei-36" d="M 3181 4219 
Q 2803 4413 2391 4413 
Q 1763 4413 1381 3866 
Q 1000 3319 994 2372 
L 1009 2372 
Q 1353 3038 2106 3038 
Q 2734 3038 3109 2628 
Q 3484 2219 3484 1541 
Q 3484 831 3051 375 
Q 2619 -81 1947 -81 
Q 1209 -81 789 495 
Q 369 1072 369 2131 
Q 369 3413 920 4167 
Q 1472 4922 2372 4922 
Q 2888 4922 3181 4781 
L 3181 4219 
z
M 1031 1584 
Q 1031 1106 1286 765 
Q 1541 425 1963 425 
Q 2363 425 2613 719 
Q 2863 1013 2863 1475 
Q 2863 1975 2627 2253 
Q 2391 2531 1956 2531 
Q 1544 2531 1287 2250 
Q 1031 1969 1031 1584 
z
" transform="scale(0.015625)"/>
     </defs>
     <use xlink:href="#MicrosoftYaHei-33"/>
     <use xlink:href="#MicrosoftYaHei-36" transform="translate(58.642578 0)"/>
    </g>
   </g>
   <g id="text_11">
    <!-- 47 -->
    <g style="fill: #555555" transform="translate(198.961276 180.000675) scale(0.1 -0.1)">
     <defs>
      <path id="MicrosoftYaHei-37" d="M 3422 4463 
Q 2659 3131 2223 1998 
Q 1788 866 1684 0 
L 1047 0 
Q 1163 853 1594 1947 
Q 2025 3041 2747 4300 
L 347 4300 
L 347 4841 
L 3422 4841 
L 3422 4463 
z
" transform="scale(0.015625)"/>
     </defs>
     <use xlink:href="#MicrosoftYaHei-34"/>
     <use xlink:href="#MicrosoftYaHei-37" transform="translate(58.642578 0)"/>
    </g>
   </g>
   <g id="text_12">
    <!-- 48 -->
    <g style="fill: #555555" transform="translate(337.426611 175.787058) scale(0.1 -0.1)">
     <defs>
      <path id="MicrosoftYaHei-38" d="M 306 1350 
Q 306 1769 556 2122 
Q 806 2475 1200 2625 
Q 884 2803 700 3081 
Q 516 3359 516 3684 
Q 516 4028 692 4312 
Q 869 4597 1183 4759 
Q 1497 4922 1875 4922 
Q 2256 4922 2572 4761 
Q 2888 4600 3063 4315 
Q 3238 4031 3238 3684 
Q 3238 3366 3058 3086 
Q 2878 2806 2559 2625 
Q 2953 2472 3200 2119 
Q 3447 1766 3447 1350 
Q 3447 938 3250 611 
Q 3053 284 2690 103 
Q 2328 -78 1875 -78 
Q 1425 -78 1065 103 
Q 706 284 506 612 
Q 306 941 306 1350 
z
M 906 1378 
Q 906 947 1172 687 
Q 1438 428 1878 428 
Q 2309 428 2582 692 
Q 2856 956 2856 1378 
Q 2856 1778 2579 2051 
Q 2303 2325 1878 2325 
Q 1456 2325 1181 2058 
Q 906 1791 906 1378 
z
M 1081 3634 
Q 1081 3309 1312 3076 
Q 1544 2844 1878 2844 
Q 2206 2844 2445 3078 
Q 2684 3313 2684 3634 
Q 2684 3963 2454 4191 
Q 2225 4419 1878 4419 
Q 1534 4419 1307 4195 
Q 1081 3972 1081 3634 
z
" transform="scale(0.015625)"/>
     </defs>
     <use xlink:href="#MicrosoftYaHei-34"/>
     <use xlink:href="#MicrosoftYaHei-38" transform="translate(58.642578 0)"/>
    </g>
   </g>
   <g id="text_13">
    <!-- 14 -->
    <g style="fill: #555555" transform="translate(104.804848 319.823932) scale(0.1 -0.1)">
     <use xlink:href="#MicrosoftYaHei-31"/>
     <use xlink:href="#MicrosoftYaHei-34" transform="translate(58.642578 0)"/>
    </g>
   </g>
   <g id="text_14">
    <!-- 42 -->
    <g style="fill: #555555" transform="translate(243.270183 198.274009) scale(0.1 -0.1)">
     <use xlink:href="#MicrosoftYaHei-34"/>
     <use xlink:href="#MicrosoftYaHei-32" transform="translate(58.642578 0)"/>
    </g>
   </g>
   <g id="text_15">
    <!-- 43 -->
    <g style="fill: #555555" transform="translate(381.735518 196.640158) scale(0.1 -0.1)">
     <use xlink:href="#MicrosoftYaHei-34"/>
     <use xlink:href="#MicrosoftYaHei-33" transform="translate(58.642578 0)"/>
    </g>
   </g>
   <g id="text_16">
    <!-- 平均文本长度（字） -->
    <g transform="translate(163.979792 129.12) scale(0.14 -0.14)">
     <defs>
      <path id="MicrosoftYaHei-Bold-5e73" d="M 175 1959 
L 2719 1959 
L 2719 4253 
L 450 4253 
L 450 5078 
L 5975 5078 
L 5975 4253 
L 3669 4253 
L 3669 1959 
L 6250 1959 
L 6250 1134 
L 3669 1134 
L 3669 -809 
L 2719 -809 
L 2719 1134 
L 175 1134 
L 175 1959 
z
M 538 3691 
L 1194 4134 
Q 1794 3434 2438 2584 
L 1681 2084 
Q 1050 3041 538 3691 
z
M 5988 3628 
Q 5325 2834 4588 2066 
L 3950 2584 
Q 4675 3334 5250 4128 
L 5988 3628 
z
" transform="scale(0.015625)"/>
      <path id="MicrosoftYaHei-Bold-5747" d="M 250 -397 
L 88 547 
Q 425 628 794 725 
L 794 2847 
L 213 2847 
L 213 3703 
L 794 3703 
L 794 5322 
L 1638 5322 
L 1638 3703 
L 2156 3703 
L 2156 3269 
Q 2794 4313 3075 5366 
L 3925 5266 
Q 3809 4866 3669 4491 
L 6069 4491 
L 6016 1816 
L 5966 303 
Q 5944 -194 5730 -450 
Q 5516 -706 5167 -745 
Q 4819 -784 3775 -797 
Q 3700 -397 3556 153 
Q 4178 103 4625 103 
Q 4819 103 4955 208 
Q 5091 313 5105 575 
Q 5119 838 5141 1619 
L 5181 3703 
L 3341 3703 
Q 3059 3088 2706 2541 
Q 2463 2763 2156 3003 
L 2156 2847 
L 1638 2847 
L 1638 959 
L 2288 1153 
Q 2275 878 2269 253 
Q 963 -134 250 -397 
z
M 3556 3353 
Q 4106 2922 4588 2466 
L 4006 1891 
Q 3500 2403 3019 2822 
L 3556 3353 
z
M 2719 209 
L 2500 1128 
Q 3650 1534 4938 2059 
Q 4956 1566 5000 1153 
Q 3894 728 2719 209 
z
" transform="scale(0.015625)"/>
      <path id="MicrosoftYaHei-Bold-6587" d="M 169 4353 
L 2781 4353 
Q 2684 4672 2519 5141 
L 3475 5334 
Q 3709 4713 3831 4353 
L 6213 4353 
L 6213 3509 
L 5284 3509 
Q 4813 2091 3925 1113 
Q 4888 447 6300 97 
Q 5781 -534 5613 -822 
Q 4184 -344 3188 441 
Q 2184 -316 725 -859 
Q 388 -316 100 47 
Q 1503 484 2450 1128 
Q 1550 2131 1175 3509 
L 169 3509 
L 169 4353 
z
M 4222 3509 
L 2141 3509 
Q 2463 2484 3184 1738 
Q 3913 2488 4222 3509 
z
" transform="scale(0.015625)"/>
      <path id="MicrosoftYaHei-Bold-672c" d="M 356 4403 
L 2744 4403 
L 2744 5328 
L 3619 5328 
L 3619 4403 
L 6044 4403 
L 6044 3591 
L 3878 3591 
Q 4894 2006 6325 1166 
Q 6056 884 5656 366 
Q 4409 1409 3619 2741 
L 3619 1047 
L 4875 1047 
L 4875 259 
L 3619 259 
L 3619 -828 
L 2744 -828 
L 2744 259 
L 1481 259 
L 1481 1016 
Q 1119 634 713 291 
Q 369 741 75 1066 
Q 1553 2069 2506 3591 
L 356 3591 
L 356 4403 
z
M 1509 1047 
L 2744 1047 
L 2744 2681 
Q 2209 1794 1509 1047 
z
" transform="scale(0.015625)"/>
      <path id="MicrosoftYaHei-Bold-957f" d="M 175 2816 
L 1031 2816 
L 1031 5322 
L 1900 5322 
L 1900 2816 
L 6194 2816 
L 6194 2009 
L 3825 2009 
Q 4563 728 6313 216 
Q 6031 -153 5681 -647 
Q 3713 172 2969 2009 
L 1900 2009 
L 1900 266 
L 3513 797 
Q 3494 359 3506 -22 
Q 1653 -588 1269 -903 
L 794 -103 
Q 1031 134 1031 628 
L 1031 2009 
L 175 2009 
L 175 2816 
z
M 5006 5272 
L 5663 4491 
Q 4338 3747 2863 3091 
L 2350 3766 
Q 4013 4547 5006 5272 
z
" transform="scale(0.015625)"/>
      <path id="MicrosoftYaHei-Bold-5ea6" d="M 5656 1697 
L 5656 1022 
Q 5156 447 4656 97 
Q 5344 -34 6306 -66 
Q 6119 -428 5938 -822 
Q 4556 -653 3719 -353 
Q 2825 -653 1494 -872 
Q 1338 -522 1088 -178 
Q 2100 -128 2888 78 
Q 2369 453 1938 1022 
L 1538 1022 
L 1538 1697 
L 5656 1697 
z
M 1325 2478 
Q 1338 134 700 -884 
Q 356 -553 19 -297 
Q 550 697 525 2591 
L 525 4772 
L 3013 4772 
Q 2944 4953 2831 5209 
L 3869 5359 
Q 3981 5072 4094 4772 
L 6256 4772 
L 6256 4072 
L 1325 4072 
L 1325 2478 
z
M 1463 3684 
L 2144 3684 
L 2144 3947 
L 2944 3947 
L 2944 3684 
L 4494 3684 
L 4494 3947 
L 5294 3947 
L 5294 3684 
L 6144 3684 
L 6144 3009 
L 5294 3009 
L 5294 1991 
L 2144 1991 
L 2144 3009 
L 1463 3009 
L 1463 3684 
z
M 3756 378 
Q 4325 641 4725 1022 
L 2825 1022 
Q 3225 622 3756 378 
z
M 4494 2628 
L 4494 3009 
L 2944 3009 
L 2944 2628 
L 4494 2628 
z
" transform="scale(0.015625)"/>
      <path id="MicrosoftYaHei-Bold-ff08" d="M 5197 -1088 
Q 4056 184 4056 1881 
Q 4056 3616 5203 4838 
L 6034 4838 
Q 4922 3503 4922 1888 
Q 4922 266 6028 -1088 
L 5197 -1088 
z
" transform="scale(0.015625)"/>
      <path id="MicrosoftYaHei-Bold-5b57" d="M 2556 5147 
L 3613 5347 
Q 3716 5025 3822 4666 
L 6131 4666 
L 6131 3053 
L 5256 3053 
L 5256 3866 
L 1181 3866 
L 1181 3041 
L 306 3041 
L 306 4666 
L 2725 4666 
Q 2641 4916 2556 5147 
z
M 169 1766 
L 2900 1766 
L 2900 2028 
L 3750 2566 
L 1450 2566 
L 1450 3366 
L 4975 3366 
L 4975 2572 
L 3813 1803 
L 3813 1766 
L 6244 1766 
L 6244 941 
L 3813 941 
L 3813 91 
Q 3813 -803 2844 -803 
L 1806 -803 
Q 1731 -372 1588 78 
Q 1978 47 2341 47 
Q 2663 47 2781 133 
Q 2900 219 2900 434 
L 2900 941 
L 169 941 
L 169 1766 
z
" transform="scale(0.015625)"/>
      <path id="MicrosoftYaHei-Bold-ff09" d="M 1191 -1088 
L 359 -1088 
Q 1472 238 1472 1863 
Q 1472 3478 366 4838 
L 1197 4838 
Q 2338 3572 2338 1863 
Q 2338 125 1191 -1088 
z
" transform="scale(0.015625)"/>
     </defs>
     <use xlink:href="#MicrosoftYaHei-Bold-5e73"/>
     <use xlink:href="#MicrosoftYaHei-Bold-5747" transform="translate(100 0)"/>
     <use xlink:href="#MicrosoftYaHei-Bold-6587" transform="translate(200 0)"/>
     <use xlink:href="#MicrosoftYaHei-Bold-672c" transform="translate(300 0)"/>
     <use xlink:href="#MicrosoftYaHei-Bold-957f" transform="translate(400 0)"/>
     <use xlink:href="#MicrosoftYaHei-Bold-5ea6" transform="translate(500 0)"/>
     <use xlink:href="#MicrosoftYaHei-Bold-ff08" transform="translate(600 0)"/>
     <use xlink:href="#MicrosoftYaHei-Bold-5b57" transform="translate(700 0)"/>
     <use xlink:href="#MicrosoftYaHei-Bold-ff09" transform="translate(800 0)"/>
    </g>
   </g>
  </g>
  <g id="axes_2">
   <g id="patch_11">
    <path d="M 505.481458 384.92 
L 907.584792 384.92 
L 907.584792 139.12 
L 505.481458 139.12 
z
" style="fill: #ffffff"/>
   </g>
   <g id="patch_12">
    <path d="M 523.758883 384.92 
L 568.06779 384.92 
L 568.06779 252.579122 
L 523.758883 252.579122 
z
" clip-path="url(#pe74dfe96d7)" style="fill: #7ea8be; stroke: #ffffff; stroke-linejoin: miter"/>
   </g>
   <g id="patch_13">
    <path d="M 662.224218 384.92 
L 706.533125 384.92 
L 706.533125 198.209781 
L 662.224218 198.209781 
z
" clip-path="url(#pe74dfe96d7)" style="fill: #7ea8be; stroke: #ffffff; stroke-linejoin: miter"/>
   </g>
   <g id="patch_14">
    <path d="M 800.689553 384.92 
L 844.99846 384.92 
L 844.99846 180.086667 
L 800.689553 180.086667 
z
" clip-path="url(#pe74dfe96d7)" style="fill: #7ea8be; stroke: #ffffff; stroke-linejoin: miter"/>
   </g>
   <g id="patch_15">
    <path d="M 568.06779 384.92 
L 612.376697 384.92 
L 612.376697 368.693491 
L 568.06779 368.693491 
z
" clip-path="url(#pe74dfe96d7)" style="fill: #e8a87c; stroke: #ffffff; stroke-linejoin: miter"/>
   </g>
   <g id="patch_16">
    <path d="M 706.533125 384.92 
L 750.842032 384.92 
L 750.842032 289.668285 
L 706.533125 289.668285 
z
" clip-path="url(#pe74dfe96d7)" style="fill: #e8a87c; stroke: #ffffff; stroke-linejoin: miter"/>
   </g>
   <g id="patch_17">
    <path d="M 844.99846 384.92 
L 889.307367 384.92 
L 889.307367 325.914513 
L 844.99846 325.914513 
z
" clip-path="url(#pe74dfe96d7)" style="fill: #e8a87c; stroke: #ffffff; stroke-linejoin: miter"/>
   </g>
   <g id="matplotlib.axis_3">
    <g id="xtick_4">
     <g id="line2d_16">
      <g>
       <use xlink:href="#mca493a209a" x="568.06779" y="384.92" style="stroke: #000000; stroke-width: 0.8"/>
      </g>
     </g>
     <g id="text_17">
      <!-- HSK 1 -->
      <g transform="translate(550.860915 401.5125) scale(0.12 -0.12)">
       <use xlink:href="#MicrosoftYaHei-48"/>
       <use xlink:href="#MicrosoftYaHei-53" transform="translate(77.34375 0)"/>
       <use xlink:href="#MicrosoftYaHei-4b" transform="translate(135.058594 0)"/>
       <use xlink:href="#MicrosoftYaHei-20" transform="translate(198.535156 0)"/>
       <use xlink:href="#MicrosoftYaHei-31" transform="translate(228.125 0)"/>
      </g>
     </g>
    </g>
    <g id="xtick_5">
     <g id="line2d_17">
      <g>
       <use xlink:href="#mca493a209a" x="706.533125" y="384.92" style="stroke: #000000; stroke-width: 0.8"/>
      </g>
     </g>
     <g id="text_18">
      <!-- HSK 2 -->
      <g transform="translate(689.32625 401.5125) scale(0.12 -0.12)">
       <use xlink:href="#MicrosoftYaHei-48"/>
       <use xlink:href="#MicrosoftYaHei-53" transform="translate(77.34375 0)"/>
       <use xlink:href="#MicrosoftYaHei-4b" transform="translate(135.058594 0)"/>
       <use xlink:href="#MicrosoftYaHei-20" transform="translate(198.535156 0)"/>
       <use xlink:href="#MicrosoftYaHei-32" transform="translate(228.125 0)"/>
      </g>
     </g>
    </g>
    <g id="xtick_6">
     <g id="line2d_18">
      <g>
       <use xlink:href="#mca493a209a" x="844.99846" y="384.92" style="stroke: #000000; stroke-width: 0.8"/>
      </g>
     </g>
     <g id="text_19">
      <!-- HSK 3 -->
      <g transform="translate(827.791585 401.5125) scale(0.12 -0.12)">
       <use xlink:href="#MicrosoftYaHei-48"/>
       <use xlink:href="#MicrosoftYaHei-53" transform="translate(77.34375 0)"/>
       <use xlink:href="#MicrosoftYaHei-4b" transform="translate(135.058594 0)"/>
       <use xlink:href="#MicrosoftYaHei-20" transform="translate(198.535156 0)"/>
       <use xlink:href="#MicrosoftYaHei-33" transform="translate(228.125 0)"/>
      </g>
     </g>
    </g>
   </g>
   <g id="matplotlib.axis_4">
    <g id="ytick_7">
     <g id="line2d_19">
      <path d="M 505.481458 384.92 
L 907.584792 384.92 
" clip-path="url(#pe74dfe96d7)" style="fill: none; stroke: #eeeeee; stroke-width: 0.5; stroke-linecap: square"/>
     </g>
     <g id="line2d_20">
      <g>
       <use xlink:href="#mab6613f3bb" x="505.481458" y="384.92" style="stroke: #000000; stroke-width: 0.8"/>
      </g>
     </g>
     <g id="text_20">
      <!-- 0 -->
      <g transform="translate(492.617396 388.916875) scale(0.1 -0.1)">
       <use xlink:href="#MicrosoftYaHei-30"/>
      </g>
     </g>
    </g>
    <g id="ytick_8">
     <g id="line2d_21">
      <path d="M 505.481458 342.773224 
L 907.584792 342.773224 
" clip-path="url(#pe74dfe96d7)" style="fill: none; stroke: #eeeeee; stroke-width: 0.5; stroke-linecap: square"/>
     </g>
     <g id="line2d_22">
      <g>
       <use xlink:href="#mab6613f3bb" x="505.481458" y="342.773224" style="stroke: #000000; stroke-width: 0.8"/>
      </g>
     </g>
     <g id="text_21">
      <!-- 2 -->
      <g transform="translate(492.617396 346.770099) scale(0.1 -0.1)">
       <use xlink:href="#MicrosoftYaHei-32"/>
      </g>
     </g>
    </g>
    <g id="ytick_9">
     <g id="line2d_23">
      <path d="M 505.481458 300.626447 
L 907.584792 300.626447 
" clip-path="url(#pe74dfe96d7)" style="fill: none; stroke: #eeeeee; stroke-width: 0.5; stroke-linecap: square"/>
     </g>
     <g id="line2d_24">
      <g>
       <use xlink:href="#mab6613f3bb" x="505.481458" y="300.626447" style="stroke: #000000; stroke-width: 0.8"/>
      </g>
     </g>
     <g id="text_22">
      <!-- 4 -->
      <g transform="translate(492.617396 304.623322) scale(0.1 -0.1)">
       <use xlink:href="#MicrosoftYaHei-34"/>
      </g>
     </g>
    </g>
    <g id="ytick_10">
     <g id="line2d_25">
      <path d="M 505.481458 258.479671 
L 907.584792 258.479671 
" clip-path="url(#pe74dfe96d7)" style="fill: none; stroke: #eeeeee; stroke-width: 0.5; stroke-linecap: square"/>
     </g>
     <g id="line2d_26">
      <g>
       <use xlink:href="#mab6613f3bb" x="505.481458" y="258.479671" style="stroke: #000000; stroke-width: 0.8"/>
      </g>
     </g>
     <g id="text_23">
      <!-- 6 -->
      <g transform="translate(492.617396 262.476546) scale(0.1 -0.1)">
       <use xlink:href="#MicrosoftYaHei-36"/>
      </g>
     </g>
    </g>
    <g id="ytick_11">
     <g id="line2d_27">
      <path d="M 505.481458 216.332894 
L 907.584792 216.332894 
" clip-path="url(#pe74dfe96d7)" style="fill: none; stroke: #eeeeee; stroke-width: 0.5; stroke-linecap: square"/>
     </g>
     <g id="line2d_28">
      <g>
       <use xlink:href="#mab6613f3bb" x="505.481458" y="216.332894" style="stroke: #000000; stroke-width: 0.8"/>
      </g>
     </g>
     <g id="text_24">
      <!-- 8 -->
      <g transform="translate(492.617396 220.329769) scale(0.1 -0.1)">
       <use xlink:href="#MicrosoftYaHei-38"/>
      </g>
     </g>
    </g>
    <g id="ytick_12">
     <g id="line2d_29">
      <path d="M 505.481458 174.186118 
L 907.584792 174.186118 
" clip-path="url(#pe74dfe96d7)" style="fill: none; stroke: #eeeeee; stroke-width: 0.5; stroke-linecap: square"/>
     </g>
     <g id="line2d_30">
      <g>
       <use xlink:href="#mab6613f3bb" x="505.481458" y="174.186118" style="stroke: #000000; stroke-width: 0.8"/>
      </g>
     </g>
     <g id="text_25">
      <!-- 10 -->
      <g transform="translate(486.753333 178.182993) scale(0.1 -0.1)">
       <use xlink:href="#MicrosoftYaHei-31"/>
       <use xlink:href="#MicrosoftYaHei-30" transform="translate(58.642578 0)"/>
      </g>
     </g>
    </g>
   </g>
   <g id="patch_18">
    <path d="M 505.481458 384.92 
L 505.481458 139.12 
" style="fill: none; stroke: #cccccc; stroke-width: 0.8; stroke-linejoin: miter; stroke-linecap: square"/>
   </g>
   <g id="patch_19">
    <path d="M 505.481458 384.92 
L 907.584792 384.92 
" style="fill: none; stroke: #cccccc; stroke-width: 0.8; stroke-linejoin: miter; stroke-linecap: square"/>
   </g>
   <g id="text_26">
    <!-- 6.3 -->
    <g style="fill: #555555" transform="translate(538.845367 249.418114) scale(0.1 -0.1)">
     <defs>
      <path id="MicrosoftYaHei-2e" d="M 372 322 
Q 372 491 487 606 
Q 603 722 775 722 
Q 950 722 1065 605 
Q 1181 488 1181 322 
Q 1181 159 1065 42 
Q 950 -75 772 -75 
Q 600 -75 486 42 
Q 372 159 372 322 
z
" transform="scale(0.015625)"/>
     </defs>
     <use xlink:href="#MicrosoftYaHei-36"/>
     <use xlink:href="#MicrosoftYaHei-2e" transform="translate(58.642578 0)"/>
     <use xlink:href="#MicrosoftYaHei-33" transform="translate(82.714844 0)"/>
    </g>
   </g>
   <g id="text_27">
    <!-- 8.9 -->
    <g style="fill: #555555" transform="translate(677.310703 195.048772) scale(0.1 -0.1)">
     <defs>
      <path id="MicrosoftYaHei-39" d="M 578 656 
Q 978 425 1441 425 
Q 2091 425 2448 937 
Q 2806 1450 2806 2394 
Q 2800 2388 2794 2394 
Q 2475 1788 1722 1788 
Q 1113 1788 713 2206 
Q 313 2625 313 3294 
Q 313 4006 750 4464 
Q 1188 4922 1884 4922 
Q 2606 4922 3012 4355 
Q 3419 3788 3419 2703 
Q 3419 1363 2894 641 
Q 2369 -81 1441 -81 
Q 931 -81 578 84 
L 578 656 
z
M 931 3372 
Q 931 2884 1181 2598 
Q 1431 2313 1872 2313 
Q 2253 2313 2512 2573 
Q 2772 2834 2772 3206 
Q 2772 3728 2514 4070 
Q 2256 4413 1834 4413 
Q 1444 4413 1187 4116 
Q 931 3819 931 3372 
z
" transform="scale(0.015625)"/>
     </defs>
     <use xlink:href="#MicrosoftYaHei-38"/>
     <use xlink:href="#MicrosoftYaHei-2e" transform="translate(58.642578 0)"/>
     <use xlink:href="#MicrosoftYaHei-39" transform="translate(82.714844 0)"/>
    </g>
   </g>
   <g id="text_28">
    <!-- 9.7 -->
    <g style="fill: #555555" transform="translate(815.776038 176.925658) scale(0.1 -0.1)">
     <use xlink:href="#MicrosoftYaHei-39"/>
     <use xlink:href="#MicrosoftYaHei-2e" transform="translate(58.642578 0)"/>
     <use xlink:href="#MicrosoftYaHei-37" transform="translate(82.714844 0)"/>
    </g>
   </g>
   <g id="text_29">
    <!-- 0.8 -->
    <g style="fill: #555555" transform="translate(583.154275 365.532483) scale(0.1 -0.1)">
     <use xlink:href="#MicrosoftYaHei-30"/>
     <use xlink:href="#MicrosoftYaHei-2e" transform="translate(58.642578 0)"/>
     <use xlink:href="#MicrosoftYaHei-38" transform="translate(82.714844 0)"/>
    </g>
   </g>
   <g id="text_30">
    <!-- 4.5 -->
    <g style="fill: #555555" transform="translate(721.61961 286.507277) scale(0.1 -0.1)">
     <use xlink:href="#MicrosoftYaHei-34"/>
     <use xlink:href="#MicrosoftYaHei-2e" transform="translate(58.642578 0)"/>
     <use xlink:href="#MicrosoftYaHei-35" transform="translate(82.714844 0)"/>
    </g>
   </g>
   <g id="text_31">
    <!-- 2.8 -->
    <g style="fill: #555555" transform="translate(860.084945 322.753505) scale(0.1 -0.1)">
     <use xlink:href="#MicrosoftYaHei-32"/>
     <use xlink:href="#MicrosoftYaHei-2e" transform="translate(58.642578 0)"/>
     <use xlink:href="#MicrosoftYaHei-38" transform="translate(82.714844 0)"/>
    </g>
   </g>
   <g id="text_32">
    <!-- 平均超纲词数（个/条） -->
    <g transform="translate(633.224531 129.12) scale(0.14 -0.14)">
     <defs>
      <path id="MicrosoftYaHei-Bold-8d85" d="M 2863 2447 
L 2269 2447 
L 2269 1753 
L 2894 1753 
L 2894 991 
L 2269 991 
L 2269 156 
Q 2381 91 3781 91 
Q 4741 91 6306 122 
Q 6144 -359 6050 -716 
Q 3569 -716 2808 -692 
Q 2047 -669 1619 -480 
Q 1191 -291 959 72 
Q 850 -503 675 -853 
Q 400 -572 75 -259 
Q 394 509 400 2184 
L 1131 2184 
Q 1125 1644 1094 1184 
Q 1216 788 1488 538 
L 1488 2447 
L 125 2447 
L 125 3209 
L 1175 3209 
L 1175 3778 
L 300 3778 
L 300 4541 
L 1175 4541 
L 1175 5322 
L 1981 5322 
L 1981 4541 
L 2769 4541 
L 2769 3778 
L 1981 3778 
L 1981 3209 
L 2863 3209 
L 2863 2447 
z
M 4456 2872 
Q 4413 3134 4238 3572 
Q 4525 3559 4688 3559 
Q 4963 3559 5045 3659 
Q 5128 3759 5144 4409 
L 4453 4409 
Q 4313 3194 3294 2728 
Q 3131 2972 2850 3334 
Q 3528 3622 3666 4409 
L 2969 4409 
L 2969 5109 
L 6013 5109 
Q 5956 3825 5922 3572 
Q 5888 3319 5750 3151 
Q 5613 2984 5386 2934 
Q 5159 2884 4456 2872 
z
M 3175 2641 
L 5913 2641 
L 5913 453 
L 3175 453 
L 3175 2641 
z
M 5119 1153 
L 5119 1941 
L 3969 1941 
L 3969 1153 
L 5119 1153 
z
" transform="scale(0.015625)"/>
      <path id="MicrosoftYaHei-Bold-7eb2" d="M 1225 1722 
Q 1444 1741 2075 1834 
Q 2019 1366 2006 1084 
Q 925 978 425 853 
L 181 1584 
Q 500 1866 1025 2728 
Q 563 2691 300 2634 
L 75 3359 
Q 463 3703 1156 5359 
L 1894 5053 
Q 1206 3753 981 3409 
L 1422 3428 
Q 1581 3722 1738 4041 
L 2244 3800 
L 2244 5066 
L 6044 5066 
L 6044 134 
Q 6044 -306 5839 -532 
Q 5634 -759 5267 -778 
Q 4900 -797 4269 -797 
Q 4206 -441 4088 41 
Q 4494 16 4825 16 
Q 5250 16 5250 384 
L 5250 675 
L 4619 341 
L 4163 1322 
Q 3841 703 3525 216 
Q 3334 406 3038 688 
L 3038 -784 
L 2244 -784 
L 2244 3419 
Q 1616 2306 1225 1722 
z
M 3588 4072 
L 4141 2984 
Q 4375 3538 4575 4128 
L 5250 3828 
L 5250 4303 
L 3038 4303 
L 3038 3813 
L 3588 4072 
z
M 4563 2144 
L 5250 741 
L 5250 3772 
Q 4903 2884 4563 2144 
z
M 3766 2156 
L 3038 3656 
L 3038 859 
Q 3428 1475 3766 2156 
z
M 238 -566 
L 94 266 
L 2175 541 
Q 2131 91 2119 -259 
L 238 -566 
z
" transform="scale(0.015625)"/>
      <path id="MicrosoftYaHei-Bold-8bcd" d="M 1056 5322 
Q 1488 4759 1863 4172 
L 1056 3697 
Q 700 4328 300 4884 
L 1056 5322 
z
M 6031 422 
Q 6031 -78 5873 -361 
Q 5716 -644 5420 -712 
Q 5125 -781 3969 -803 
Q 3894 -353 3788 134 
Q 4225 97 4563 97 
Q 4922 97 5048 245 
Q 5175 394 5175 647 
L 5175 4272 
L 2125 4272 
L 2125 5072 
L 6031 5072 
L 6031 422 
z
M 4844 3072 
L 1956 3072 
L 1956 3853 
L 4844 3853 
L 4844 3072 
z
M 1913 1134 
Q 1938 572 1994 166 
Q 1400 -328 938 -766 
L 463 -141 
Q 619 47 619 353 
L 619 2422 
L 113 2422 
L 113 3234 
L 1463 3234 
L 1463 766 
L 1913 1134 
z
M 4638 2659 
L 4638 472 
L 2925 472 
L 2925 78 
L 2119 78 
L 2119 2659 
L 4638 2659 
z
M 2925 1934 
L 2925 1197 
L 3831 1197 
L 3831 1934 
L 2925 1934 
z
" transform="scale(0.015625)"/>
      <path id="MicrosoftYaHei-Bold-6570" d="M 238 4091 
L 725 4091 
Q 559 4425 281 4803 
L 844 5153 
Q 1038 4922 1369 4428 
L 806 4091 
L 1506 4091 
L 1506 5316 
L 2300 5316 
L 2300 4091 
L 2956 4091 
L 2438 4428 
Q 2750 4809 2963 5172 
L 3550 4822 
Q 3341 4466 3031 4091 
L 3394 4091 
L 3394 3453 
L 2300 3453 
L 2300 3016 
L 2513 3303 
Q 2903 3094 3253 2891 
Q 3766 3841 4138 5347 
L 4994 5266 
Q 4869 4781 4728 4341 
L 6294 4341 
L 6294 3578 
L 6041 3578 
Q 5906 1922 5338 856 
Q 5738 391 6319 53 
Q 6094 -203 5775 -778 
Q 5228 -413 4828 109 
Q 4313 -497 3631 -872 
Q 3378 -513 3072 -197 
L 2850 -566 
Q 2475 -350 2031 -128 
Q 1347 -584 394 -778 
Q 281 -434 63 -9 
Q 716 59 1213 253 
Q 781 444 300 641 
Q 513 950 681 1259 
L 169 1259 
L 169 1897 
L 991 1897 
Q 1094 2144 1169 2391 
L 1506 2359 
L 1506 2959 
Q 1044 2472 344 2053 
Q 213 2472 50 2803 
Q 672 3044 1172 3453 
L 238 3453 
L 238 4091 
z
M 4394 3400 
Q 4519 2359 4831 1659 
Q 5203 2478 5275 3578 
L 4463 3578 
Q 4431 3488 4394 3400 
z
M 2300 2216 
L 1984 2216 
Q 1913 2063 1825 1897 
L 3281 1897 
L 3281 1316 
Q 3038 806 2672 413 
L 3294 166 
L 3169 -38 
Q 3859 322 4347 894 
Q 4041 1522 3878 2300 
Q 3769 2103 3656 1922 
Q 3513 2172 3322 2438 
L 3138 2159 
Q 2750 2422 2300 2691 
L 2300 2216 
z
M 1300 934 
L 1950 691 
Q 2231 934 2413 1259 
L 1484 1259 
L 1300 934 
z
" transform="scale(0.015625)"/>
      <path id="MicrosoftYaHei-Bold-4e2a" d="M 2719 2966 
L 3675 2966 
L 3675 -841 
L 2719 -841 
L 2719 2966 
z
M 3788 5241 
L 3681 5066 
Q 4575 3622 6319 2684 
Q 5956 2197 5725 1841 
Q 4000 2822 3206 4241 
Q 2425 2891 675 1759 
Q 494 2047 94 2584 
Q 1894 3672 2819 5241 
L 3788 5241 
z
" transform="scale(0.015625)"/>
      <path id="MicrosoftYaHei-Bold-2f" d="M 3100 4841 
L 747 -803 
L -156 -803 
L 2188 4841 
L 3100 4841 
z
" transform="scale(0.015625)"/>
      <path id="MicrosoftYaHei-Bold-6761" d="M 5581 4797 
L 5581 4122 
Q 5034 3575 4253 3166 
Q 5059 3006 6244 2959 
Q 6069 2566 5906 2128 
Q 4203 2316 3169 2703 
Q 2028 2300 494 2091 
Q 331 2497 156 2872 
Q 1306 2963 2216 3184 
Q 1831 3434 1506 3753 
Q 1109 3422 656 3147 
Q 444 3434 150 3778 
Q 1381 4478 1956 5328 
L 2900 5328 
Q 2719 5050 2519 4797 
L 5581 4797 
z
M 3197 3491 
Q 3850 3747 4331 4103 
L 2203 4103 
Q 2672 3731 3197 3491 
z
M 425 1891 
L 2781 1891 
L 2781 2378 
L 3688 2378 
L 3688 1891 
L 6000 1891 
L 6000 1166 
L 3688 1166 
L 3688 191 
Q 3688 -194 3530 -422 
Q 3372 -650 3098 -715 
Q 2825 -781 1981 -791 
Q 1894 -341 1775 84 
Q 2163 53 2444 53 
Q 2781 53 2781 441 
L 2781 1166 
L 1763 1166 
L 2338 572 
Q 1481 -28 594 -609 
Q 356 -222 125 91 
Q 997 572 1734 1166 
L 425 1166 
L 425 1891 
z
M 4031 584 
L 4550 1147 
Q 5406 647 6263 47 
L 5725 -609 
L 4031 584 
z
" transform="scale(0.015625)"/>
     </defs>
     <use xlink:href="#MicrosoftYaHei-Bold-5e73"/>
     <use xlink:href="#MicrosoftYaHei-Bold-5747" transform="translate(100 0)"/>
     <use xlink:href="#MicrosoftYaHei-Bold-8d85" transform="translate(200 0)"/>
     <use xlink:href="#MicrosoftYaHei-Bold-7eb2" transform="translate(300 0)"/>
     <use xlink:href="#MicrosoftYaHei-Bold-8bcd" transform="translate(400 0)"/>
     <use xlink:href="#MicrosoftYaHei-Bold-6570" transform="translate(500 0)"/>
     <use xlink:href="#MicrosoftYaHei-Bold-ff08" transform="translate(600 0)"/>
     <use xlink:href="#MicrosoftYaHei-Bold-4e2a" transform="translate(700 0)"/>
     <use xlink:href="#MicrosoftYaHei-Bold-2f" transform="translate(800 0)"/>
     <use xlink:href="#MicrosoftYaHei-Bold-6761" transform="translate(847.265625 0)"/>
     <use xlink:href="#MicrosoftYaHei-Bold-ff09" transform="translate(947.265625 0)"/>
    </g>
   </g>
  </g>
  <g id="axes_3">
   <g id="patch_20">
    <path d="M 985.034792 384.92 
L 1387.138125 384.92 
L 1387.138125 139.12 
L 985.034792 139.12 
z
" style="fill: #ffffff"/>
   </g>
   <g id="patch_21">
    <path d="M 1003.312216 384.92 
L 1047.621123 384.92 
L 1047.621123 365.171225 
L 1003.312216 365.171225 
z
" clip-path="url(#p6386a546dc)" style="fill: #e8f4f8; stroke: #ffffff; stroke-width: 0.3; stroke-linejoin: miter"/>
   </g>
   <g id="patch_22">
    <path d="M 1141.777551 384.92 
L 1186.086458 384.92 
L 1186.086458 384.92 
L 1141.777551 384.92 
z
" clip-path="url(#p6386a546dc)" style="fill: #e8f4f8; stroke: #ffffff; stroke-width: 0.3; stroke-linejoin: miter"/>
   </g>
   <g id="patch_23">
    <path d="M 1280.242886 384.92 
L 1324.551794 384.92 
L 1324.551794 384.92 
L 1280.242886 384.92 
z
" clip-path="url(#p6386a546dc)" style="fill: #e8f4f8; stroke: #ffffff; stroke-width: 0.3; stroke-linejoin: miter"/>
   </g>
   <g id="patch_24">
    <path d="M 1047.621123 384.92 
L 1091.93003 384.92 
L 1091.93003 379.380709 
L 1047.621123 379.380709 
z
" clip-path="url(#p6386a546dc)" style="fill: #e8f4f8; stroke: #ffffff; stroke-width: 0.3; stroke-linejoin: miter"/>
   </g>
   <g id="patch_25">
    <path d="M 1186.086458 384.92 
L 1230.395366 384.92 
L 1230.395366 384.92 
L 1186.086458 384.92 
z
" clip-path="url(#p6386a546dc)" style="fill: #e8f4f8; stroke: #ffffff; stroke-width: 0.3; stroke-linejoin: miter"/>
   </g>
   <g id="patch_26">
    <path d="M 1324.551794 384.92 
L 1368.860701 384.92 
L 1368.860701 384.92 
L 1324.551794 384.92 
z
" clip-path="url(#p6386a546dc)" style="fill: #e8f4f8; stroke: #ffffff; stroke-width: 0.3; stroke-linejoin: miter"/>
   </g>
   <g id="patch_27">
    <path d="M 1003.312216 365.171225 
L 1047.621123 365.171225 
L 1047.621123 318.207674 
L 1003.312216 318.207674 
z
" clip-path="url(#p6386a546dc)" style="fill: #c5e3ed; stroke: #ffffff; stroke-width: 0.3; stroke-linejoin: miter"/>
   </g>
   <g id="patch_28">
    <path d="M 1141.777551 384.92 
L 1186.086458 384.92 
L 1186.086458 327.600384 
L 1141.777551 327.600384 
z
" clip-path="url(#p6386a546dc)" style="fill: #c5e3ed; stroke: #ffffff; stroke-width: 0.3; stroke-linejoin: miter"/>
   </g>
   <g id="patch_29">
    <path d="M 1280.242886 384.92 
L 1324.551794 384.92 
L 1324.551794 384.92 
L 1280.242886 384.92 
z
" clip-path="url(#p6386a546dc)" style="fill: #c5e3ed; stroke: #ffffff; stroke-width: 0.3; stroke-linejoin: miter"/>
   </g>
   <g id="patch_30">
    <path d="M 1047.621123 379.380709 
L 1091.93003 379.380709 
L 1091.93003 368.542967 
L 1047.621123 368.542967 
z
" clip-path="url(#p6386a546dc)" style="fill: #c5e3ed; stroke: #ffffff; stroke-width: 0.3; stroke-linejoin: miter"/>
   </g>
   <g id="patch_31">
    <path d="M 1186.086458 384.92 
L 1230.395366 384.92 
L 1230.395366 345.904127 
L 1186.086458 345.904127 
z
" clip-path="url(#p6386a546dc)" style="fill: #c5e3ed; stroke: #ffffff; stroke-width: 0.3; stroke-linejoin: miter"/>
   </g>
   <g id="patch_32">
    <path d="M 1324.551794 384.92 
L 1368.860701 384.92 
L 1368.860701 384.92 
L 1324.551794 384.92 
z
" clip-path="url(#p6386a546dc)" style="fill: #c5e3ed; stroke: #ffffff; stroke-width: 0.3; stroke-linejoin: miter"/>
   </g>
   <g id="patch_33">
    <path d="M 1003.312216 318.207674 
L 1047.621123 318.207674 
L 1047.621123 274.134188 
L 1003.312216 274.134188 
z
" clip-path="url(#p6386a546dc)" style="fill: #a2d2e2; stroke: #ffffff; stroke-width: 0.3; stroke-linejoin: miter"/>
   </g>
   <g id="patch_34">
    <path d="M 1141.777551 327.600384 
L 1186.086458 327.600384 
L 1186.086458 256.312122 
L 1141.777551 256.312122 
z
" clip-path="url(#p6386a546dc)" style="fill: #a2d2e2; stroke: #ffffff; stroke-width: 0.3; stroke-linejoin: miter"/>
   </g>
   <g id="patch_35">
    <path d="M 1280.242886 384.92 
L 1324.551794 384.92 
L 1324.551794 307.129093 
L 1280.242886 307.129093 
z
" clip-path="url(#p6386a546dc)" style="fill: #a2d2e2; stroke: #ffffff; stroke-width: 0.3; stroke-linejoin: miter"/>
   </g>
   <g id="patch_36">
    <path d="M 1047.621123 368.542967 
L 1091.93003 368.542967 
L 1091.93003 367.338773 
L 1047.621123 367.338773 
z
" clip-path="url(#p6386a546dc)" style="fill: #a2d2e2; stroke: #ffffff; stroke-width: 0.3; stroke-linejoin: miter"/>
   </g>
   <g id="patch_37">
    <path d="M 1186.086458 345.904127 
L 1230.395366 345.904127 
L 1230.395366 312.909222 
L 1186.086458 312.909222 
z
" clip-path="url(#p6386a546dc)" style="fill: #a2d2e2; stroke: #ffffff; stroke-width: 0.3; stroke-linejoin: miter"/>
   </g>
   <g id="patch_38">
    <path d="M 1324.551794 384.92 
L 1368.860701 384.92 
L 1368.860701 349.03503 
L 1324.551794 349.03503 
z
" clip-path="url(#p6386a546dc)" style="fill: #a2d2e2; stroke: #ffffff; stroke-width: 0.3; stroke-linejoin: miter"/>
   </g>
   <g id="patch_39">
    <path d="M 1003.312216 274.134188 
L 1047.621123 274.134188 
L 1047.621123 254.385413 
L 1003.312216 254.385413 
z
" clip-path="url(#p6386a546dc)" style="fill: #7ea8be; stroke: #ffffff; stroke-width: 0.3; stroke-linejoin: miter"/>
   </g>
   <g id="patch_40">
    <path d="M 1141.777551 256.312122 
L 1186.086458 256.312122 
L 1186.086458 208.144378 
L 1141.777551 208.144378 
z
" clip-path="url(#p6386a546dc)" style="fill: #7ea8be; stroke: #ffffff; stroke-width: 0.3; stroke-linejoin: miter"/>
   </g>
   <g id="patch_41">
    <path d="M 1280.242886 307.129093 
L 1324.551794 307.129093 
L 1324.551794 224.521411 
L 1280.242886 224.521411 
z
" clip-path="url(#p6386a546dc)" style="fill: #7ea8be; stroke: #ffffff; stroke-width: 0.3; stroke-linejoin: miter"/>
   </g>
   <g id="patch_42">
    <path d="M 1047.621123 367.338773 
L 1091.93003 367.338773 
L 1091.93003 366.857096 
L 1047.621123 366.857096 
z
" clip-path="url(#p6386a546dc)" style="fill: #7ea8be; stroke: #ffffff; stroke-width: 0.3; stroke-linejoin: miter"/>
   </g>
   <g id="patch_43">
    <path d="M 1186.086458 312.909222 
L 1230.395366 312.909222 
L 1230.395366 296.773028 
L 1186.086458 296.773028 
z
" clip-path="url(#p6386a546dc)" style="fill: #7ea8be; stroke: #ffffff; stroke-width: 0.3; stroke-linejoin: miter"/>
   </g>
   <g id="patch_44">
    <path d="M 1324.551794 349.03503 
L 1368.860701 349.03503 
L 1368.860701 332.898836 
L 1324.551794 332.898836 
z
" clip-path="url(#p6386a546dc)" style="fill: #7ea8be; stroke: #ffffff; stroke-width: 0.3; stroke-linejoin: miter"/>
   </g>
   <g id="patch_45">
    <path d="M 1003.312216 254.385413 
L 1047.621123 254.385413 
L 1047.621123 243.54767 
L 1003.312216 243.54767 
z
" clip-path="url(#p6386a546dc)" style="fill: #5a8ead; stroke: #ffffff; stroke-width: 0.3; stroke-linejoin: miter"/>
   </g>
   <g id="patch_46">
    <path d="M 1141.777551 208.144378 
L 1186.086458 208.144378 
L 1186.086458 186.95057 
L 1141.777551 186.95057 
z
" clip-path="url(#p6386a546dc)" style="fill: #5a8ead; stroke: #ffffff; stroke-width: 0.3; stroke-linejoin: miter"/>
   </g>
   <g id="patch_47">
    <path d="M 1280.242886 224.521411 
L 1324.551794 224.521411 
L 1324.551794 187.191409 
L 1280.242886 187.191409 
z
" clip-path="url(#p6386a546dc)" style="fill: #5a8ead; stroke: #ffffff; stroke-width: 0.3; stroke-linejoin: miter"/>
   </g>
   <g id="patch_48">
    <path d="M 1047.621123 366.857096 
L 1091.93003 366.857096 
L 1091.93003 366.616257 
L 1047.621123 366.616257 
z
" clip-path="url(#p6386a546dc)" style="fill: #5a8ead; stroke: #ffffff; stroke-width: 0.3; stroke-linejoin: miter"/>
   </g>
   <g id="patch_49">
    <path d="M 1186.086458 296.773028 
L 1230.395366 296.773028 
L 1230.395366 288.584511 
L 1186.086458 288.584511 
z
" clip-path="url(#p6386a546dc)" style="fill: #5a8ead; stroke: #ffffff; stroke-width: 0.3; stroke-linejoin: miter"/>
   </g>
   <g id="patch_50">
    <path d="M 1324.551794 332.898836 
L 1368.860701 332.898836 
L 1368.860701 327.600384 
L 1324.551794 327.600384 
z
" clip-path="url(#p6386a546dc)" style="fill: #5a8ead; stroke: #ffffff; stroke-width: 0.3; stroke-linejoin: miter"/>
   </g>
   <g id="patch_51">
    <path d="M 1003.312216 243.54767 
L 1047.621123 243.54767 
L 1047.621123 233.673282 
L 1003.312216 233.673282 
z
" clip-path="url(#p6386a546dc)" style="fill: #3d6e8c; stroke: #ffffff; stroke-width: 0.3; stroke-linejoin: miter"/>
   </g>
   <g id="patch_52">
    <path d="M 1141.777551 186.95057 
L 1186.086458 186.95057 
L 1186.086458 171.536892 
L 1141.777551 171.536892 
z
" clip-path="url(#p6386a546dc)" style="fill: #3d6e8c; stroke: #ffffff; stroke-width: 0.3; stroke-linejoin: miter"/>
   </g>
   <g id="patch_53">
    <path d="M 1280.242886 187.191409 
L 1324.551794 187.191409 
L 1324.551794 150.824762 
L 1280.242886 150.824762 
z
" clip-path="url(#p6386a546dc)" style="fill: #3d6e8c; stroke: #ffffff; stroke-width: 0.3; stroke-linejoin: miter"/>
   </g>
   <g id="patch_54">
    <path d="M 1047.621123 366.616257 
L 1091.93003 366.616257 
L 1091.93003 366.375418 
L 1047.621123 366.375418 
z
" clip-path="url(#p6386a546dc)" style="fill: #3d6e8c; stroke: #ffffff; stroke-width: 0.3; stroke-linejoin: miter"/>
   </g>
   <g id="patch_55">
    <path d="M 1186.086458 288.584511 
L 1230.395366 288.584511 
L 1230.395366 276.060898 
L 1186.086458 276.060898 
z
" clip-path="url(#p6386a546dc)" style="fill: #3d6e8c; stroke: #ffffff; stroke-width: 0.3; stroke-linejoin: miter"/>
   </g>
   <g id="patch_56">
    <path d="M 1324.551794 327.600384 
L 1368.860701 327.600384 
L 1368.860701 317.485158 
L 1324.551794 317.485158 
z
" clip-path="url(#p6386a546dc)" style="fill: #3d6e8c; stroke: #ffffff; stroke-width: 0.3; stroke-linejoin: miter"/>
   </g>
   <g id="matplotlib.axis_5">
    <g id="xtick_7">
     <g id="line2d_31">
      <g>
       <use xlink:href="#mca493a209a" x="1047.621123" y="384.92" style="stroke: #000000; stroke-width: 0.8"/>
      </g>
     </g>
     <g id="text_33">
      <!-- HSK 1 -->
      <g transform="translate(1030.414248 401.5125) scale(0.12 -0.12)">
       <use xlink:href="#MicrosoftYaHei-48"/>
       <use xlink:href="#MicrosoftYaHei-53" transform="translate(77.34375 0)"/>
       <use xlink:href="#MicrosoftYaHei-4b" transform="translate(135.058594 0)"/>
       <use xlink:href="#MicrosoftYaHei-20" transform="translate(198.535156 0)"/>
       <use xlink:href="#MicrosoftYaHei-31" transform="translate(228.125 0)"/>
      </g>
     </g>
    </g>
    <g id="xtick_8">
     <g id="line2d_32">
      <g>
       <use xlink:href="#mca493a209a" x="1186.086458" y="384.92" style="stroke: #000000; stroke-width: 0.8"/>
      </g>
     </g>
     <g id="text_34">
      <!-- HSK 2 -->
      <g transform="translate(1168.879583 401.5125) scale(0.12 -0.12)">
       <use xlink:href="#MicrosoftYaHei-48"/>
       <use xlink:href="#MicrosoftYaHei-53" transform="translate(77.34375 0)"/>
       <use xlink:href="#MicrosoftYaHei-4b" transform="translate(135.058594 0)"/>
       <use xlink:href="#MicrosoftYaHei-20" transform="translate(198.535156 0)"/>
       <use xlink:href="#MicrosoftYaHei-32" transform="translate(228.125 0)"/>
      </g>
     </g>
    </g>
    <g id="xtick_9">
     <g id="line2d_33">
      <g>
       <use xlink:href="#mca493a209a" x="1324.551794" y="384.92" style="stroke: #000000; stroke-width: 0.8"/>
      </g>
     </g>
     <g id="text_35">
      <!-- HSK 3 -->
      <g transform="translate(1307.344919 401.5125) scale(0.12 -0.12)">
       <use xlink:href="#MicrosoftYaHei-48"/>
       <use xlink:href="#MicrosoftYaHei-53" transform="translate(77.34375 0)"/>
       <use xlink:href="#MicrosoftYaHei-4b" transform="translate(135.058594 0)"/>
       <use xlink:href="#MicrosoftYaHei-20" transform="translate(198.535156 0)"/>
       <use xlink:href="#MicrosoftYaHei-33" transform="translate(228.125 0)"/>
      </g>
     </g>
    </g>
   </g>
   <g id="matplotlib.axis_6">
    <g id="ytick_13">
     <g id="line2d_34">
      <path d="M 985.034792 384.92 
L 1387.138125 384.92 
" clip-path="url(#p6386a546dc)" style="fill: none; stroke: #eeeeee; stroke-width: 0.5; stroke-linecap: square"/>
     </g>
     <g id="line2d_35">
      <g>
       <use xlink:href="#mab6613f3bb" x="985.034792" y="384.92" style="stroke: #000000; stroke-width: 0.8"/>
      </g>
     </g>
     <g id="text_36">
      <!-- 0 -->
      <g transform="translate(972.170729 388.916875) scale(0.1 -0.1)">
       <use xlink:href="#MicrosoftYaHei-30"/>
      </g>
     </g>
    </g>
    <g id="ytick_14">
     <g id="line2d_36">
      <path d="M 985.034792 336.752256 
L 1387.138125 336.752256 
" clip-path="url(#p6386a546dc)" style="fill: none; stroke: #eeeeee; stroke-width: 0.5; stroke-linecap: square"/>
     </g>
     <g id="line2d_37">
      <g>
       <use xlink:href="#mab6613f3bb" x="985.034792" y="336.752256" style="stroke: #000000; stroke-width: 0.8"/>
      </g>
     </g>
     <g id="text_37">
      <!-- 200 -->
      <g transform="translate(960.442604 340.749131) scale(0.1 -0.1)">
       <use xlink:href="#MicrosoftYaHei-32"/>
       <use xlink:href="#MicrosoftYaHei-30" transform="translate(58.642578 0)"/>
       <use xlink:href="#MicrosoftYaHei-30" transform="translate(117.285156 0)"/>
      </g>
     </g>
    </g>
    <g id="ytick_15">
     <g id="line2d_38">
      <path d="M 985.034792 288.584511 
L 1387.138125 288.584511 
" clip-path="url(#p6386a546dc)" style="fill: none; stroke: #eeeeee; stroke-width: 0.5; stroke-linecap: square"/>
     </g>
     <g id="line2d_39">
      <g>
       <use xlink:href="#mab6613f3bb" x="985.034792" y="288.584511" style="stroke: #000000; stroke-width: 0.8"/>
      </g>
     </g>
     <g id="text_38">
      <!-- 400 -->
      <g transform="translate(960.442604 292.581386) scale(0.1 -0.1)">
       <use xlink:href="#MicrosoftYaHei-34"/>
       <use xlink:href="#MicrosoftYaHei-30" transform="translate(58.642578 0)"/>
       <use xlink:href="#MicrosoftYaHei-30" transform="translate(117.285156 0)"/>
      </g>
     </g>
    </g>
    <g id="ytick_16">
     <g id="line2d_40">
      <path d="M 985.034792 240.416767 
L 1387.138125 240.416767 
" clip-path="url(#p6386a546dc)" style="fill: none; stroke: #eeeeee; stroke-width: 0.5; stroke-linecap: square"/>
     </g>
     <g id="line2d_41">
      <g>
       <use xlink:href="#mab6613f3bb" x="985.034792" y="240.416767" style="stroke: #000000; stroke-width: 0.8"/>
      </g>
     </g>
     <g id="text_39">
      <!-- 600 -->
      <g transform="translate(960.442604 244.413642) scale(0.1 -0.1)">
       <use xlink:href="#MicrosoftYaHei-36"/>
       <use xlink:href="#MicrosoftYaHei-30" transform="translate(58.642578 0)"/>
       <use xlink:href="#MicrosoftYaHei-30" transform="translate(117.285156 0)"/>
      </g>
     </g>
    </g>
    <g id="ytick_17">
     <g id="line2d_42">
      <path d="M 985.034792 192.249022 
L 1387.138125 192.249022 
" clip-path="url(#p6386a546dc)" style="fill: none; stroke: #eeeeee; stroke-width: 0.5; stroke-linecap: square"/>
     </g>
     <g id="line2d_43">
      <g>
       <use xlink:href="#mab6613f3bb" x="985.034792" y="192.249022" style="stroke: #000000; stroke-width: 0.8"/>
      </g>
     </g>
     <g id="text_40">
      <!-- 800 -->
      <g transform="translate(960.442604 196.245897) scale(0.1 -0.1)">
       <use xlink:href="#MicrosoftYaHei-38"/>
       <use xlink:href="#MicrosoftYaHei-30" transform="translate(58.642578 0)"/>
       <use xlink:href="#MicrosoftYaHei-30" transform="translate(117.285156 0)"/>
      </g>
     </g>
    </g>
    <g id="ytick_18">
     <g id="line2d_44">
      <path d="M 985.034792 144.081278 
L 1387.138125 144.081278 
" clip-path="url(#p6386a546dc)" style="fill: none; stroke: #eeeeee; stroke-width: 0.5; stroke-linecap: square"/>
     </g>
     <g id="line2d_45">
      <g>
       <use xlink:href="#mab6613f3bb" x="985.034792" y="144.081278" style="stroke: #000000; stroke-width: 0.8"/>
      </g>
     </g>
     <g id="text_41">
      <!-- 1000 -->
      <g transform="translate(954.578542 148.078153) scale(0.1 -0.1)">
       <use xlink:href="#MicrosoftYaHei-31"/>
       <use xlink:href="#MicrosoftYaHei-30" transform="translate(58.642578 0)"/>
       <use xlink:href="#MicrosoftYaHei-30" transform="translate(117.285156 0)"/>
       <use xlink:href="#MicrosoftYaHei-30" transform="translate(175.927734 0)"/>
      </g>
     </g>
    </g>
    <g id="text_42">
     <!-- 超纲词总数 -->
     <g transform="translate(947.595417 292.02) rotate(-90) scale(0.12 -0.12)">
      <defs>
       <path id="MicrosoftYaHei-8d85" d="M 106 -266 
Q 581 566 619 2241 
L 1081 2216 
Q 1059 1606 991 1091 
Q 1213 603 1581 306 
L 1581 2616 
L 138 2616 
L 138 3072 
L 1388 3072 
L 1388 3966 
L 356 3966 
L 356 4422 
L 1388 4422 
L 1388 5309 
L 1875 5309 
L 1875 4422 
L 2806 4422 
L 2806 3966 
L 1875 3966 
L 1875 3072 
L 2888 3072 
L 2888 2616 
L 2050 2616 
L 2050 1647 
L 2944 1647 
L 2944 1197 
L 2050 1197 
L 2050 28 
Q 2500 -159 3094 -166 
Q 4281 -184 6313 -141 
Q 6200 -422 6138 -634 
Q 4250 -641 2938 -616 
Q 1428 -584 884 472 
Q 706 -341 381 -853 
Q 256 -559 106 -266 
z
M 3275 2447 
L 5888 2447 
L 5888 209 
L 5425 209 
L 5425 478 
L 3738 478 
L 3738 172 
L 3275 172 
L 3275 2447 
z
M 2969 4616 
L 2969 5041 
L 5956 5041 
Q 5925 4184 5869 3603 
Q 5800 2884 5125 2866 
Q 4788 2859 4344 2884 
Q 4306 3116 4250 3384 
Q 4713 3309 5031 3316 
Q 5388 3316 5425 3716 
Q 5469 4072 5488 4616 
L 4303 4616 
Q 4250 3203 3250 2641 
Q 3131 2834 2944 3041 
Q 3813 3516 3831 4616 
L 2969 4616 
z
M 5425 2022 
L 3738 2022 
L 3738 903 
L 5425 903 
L 5425 2022 
z
" transform="scale(0.015625)"/>
       <path id="MicrosoftYaHei-7eb2" d="M 2813 -803 
L 2350 -803 
L 2350 5066 
L 5925 5066 
L 5925 -9 
Q 5925 -778 5225 -778 
Q 4819 -784 4144 -759 
Q 4106 -528 4050 -266 
Q 4669 -303 5038 -303 
Q 5463 -303 5463 72 
L 5463 4597 
L 2813 4597 
L 2813 -803 
z
M 919 1634 
Q 1481 1684 2156 1759 
Q 2125 1547 2100 1341 
Q 963 1234 319 1147 
L 219 1553 
Q 575 1866 1163 2828 
Q 613 2791 219 2759 
L 81 3153 
Q 681 3866 1313 5328 
L 1813 5084 
Q 1138 3903 688 3191 
Q 988 3203 1400 3225 
Q 1594 3559 1813 3959 
L 2294 3678 
Q 1619 2647 919 1634 
z
M 3013 3841 
L 3356 4016 
Q 3734 3381 4169 2628 
Q 4519 3328 4744 3991 
L 5175 3859 
Q 4819 2978 4416 2197 
Q 4822 1488 5269 684 
L 4863 484 
Q 4584 1022 4181 1756 
Q 3769 1013 3306 366 
L 2925 584 
Q 3509 1413 3941 2197 
Q 3531 2931 3013 3841 
z
M 81 334 
Q 1094 491 2219 697 
Q 2188 447 2169 234 
Q 1119 59 213 -122 
L 81 334 
z
" transform="scale(0.015625)"/>
       <path id="MicrosoftYaHei-8bcd" d="M 2319 2509 
L 4650 2509 
L 4650 434 
L 2769 434 
L 2769 47 
L 2319 47 
L 2319 2509 
z
M 1919 3716 
L 5131 3716 
L 5131 3253 
L 1919 3253 
L 1919 3716 
z
M 2125 4509 
L 2125 4972 
L 5956 4972 
L 5956 -34 
Q 5956 -759 5306 -766 
Q 4750 -766 4188 -759 
Q 4169 -553 4088 -259 
Q 4694 -303 5156 -303 
Q 5469 -303 5469 53 
L 5469 4509 
L 2125 4509 
z
M 2006 622 
Q 2025 297 2050 84 
Q 1256 -428 888 -747 
L 594 -328 
Q 806 -159 806 234 
L 806 2691 
L 100 2691 
L 100 3141 
L 1288 3141 
L 1288 122 
Q 1725 416 2006 622 
z
M 738 5197 
Q 1419 4497 1725 4159 
L 1288 3791 
Q 894 4309 356 4866 
L 738 5197 
z
M 4200 872 
L 4200 2072 
L 2769 2072 
L 2769 872 
L 4200 872 
z
" transform="scale(0.015625)"/>
       <path id="MicrosoftYaHei-603b" d="M 900 4253 
L 3631 4253 
Q 4022 4822 4331 5353 
L 4813 5103 
Q 4500 4675 4175 4253 
L 5500 4253 
L 5500 1703 
L 5000 1703 
L 5000 1978 
L 1400 1978 
L 1400 1703 
L 900 1703 
L 900 4253 
z
M 5000 3803 
L 1400 3803 
L 1400 2428 
L 5000 2428 
L 5000 3803 
z
M 1694 1378 
L 2181 1378 
L 2181 284 
Q 2181 -203 2619 -203 
L 3875 -203 
Q 4244 -203 4338 172 
Q 4394 366 4450 872 
Q 4631 791 4931 684 
Q 4850 209 4750 -97 
Q 4556 -641 3900 -641 
L 2519 -641 
Q 1694 -641 1694 197 
L 1694 1378 
z
M 719 1422 
L 1188 1272 
Q 931 491 538 -334 
Q 338 -247 81 -134 
Q 444 597 719 1422 
z
M 4881 1203 
L 5238 1478 
Q 5813 841 6319 197 
L 5900 -134 
Q 5456 491 4881 1203 
z
M 2663 1591 
L 3044 1841 
Q 3488 1372 3863 841 
L 3444 547 
Q 3069 1109 2663 1591 
z
M 1594 5109 
L 1975 5353 
Q 2350 4959 2650 4541 
L 2225 4266 
Q 1956 4653 1594 5109 
z
" transform="scale(0.015625)"/>
       <path id="MicrosoftYaHei-6570" d="M 4175 5303 
L 4675 5228 
Q 4544 4622 4369 4097 
L 6281 4097 
L 6281 3672 
L 5888 3672 
Q 5731 1834 5088 753 
Q 5594 66 6375 -372 
Q 6175 -647 6038 -866 
Q 5275 -372 4769 309 
Q 4194 -403 3400 -928 
Q 3263 -747 3044 -534 
Q 3919 41 4463 772 
Q 3956 1647 3794 2791 
Q 3663 2559 3519 2359 
Q 3394 2541 3206 2759 
Q 3931 3803 4175 5303 
z
M 150 1697 
L 1100 1697 
Q 1238 1934 1369 2184 
L 1819 2041 
Q 1719 1866 1619 1697 
L 3150 1697 
L 3150 1291 
Q 2913 678 2431 216 
Q 2775 53 3131 -109 
L 2856 -541 
Q 2469 -322 2050 -103 
Q 1344 -609 269 -903 
Q 169 -703 56 -466 
Q 969 -259 1600 128 
Q 1063 403 475 691 
Q 675 978 863 1284 
L 150 1284 
L 150 1697 
z
M 219 3847 
L 1656 3847 
L 1656 5247 
L 2119 5247 
L 2119 3847 
L 3319 3847 
L 3319 3434 
L 2119 3434 
L 2119 3053 
L 2306 3266 
Q 2888 2841 3281 2516 
L 2981 2166 
Q 2638 2491 2119 2897 
L 2119 2184 
L 1656 2184 
L 1656 3059 
Q 1088 2466 331 2016 
Q 213 2197 63 2397 
Q 850 2822 1506 3434 
L 219 3434 
L 219 3847 
z
M 5388 3672 
L 4219 3672 
Q 4188 3591 4150 3516 
Q 4263 2191 4775 1247 
Q 5275 2159 5388 3672 
z
M 1088 834 
Q 1531 634 2000 416 
Q 2431 784 2675 1284 
L 1375 1284 
Q 1231 1053 1088 834 
z
M 3038 5091 
L 3425 4834 
Q 3081 4384 2738 4003 
Q 2594 4128 2400 4266 
Q 2725 4647 3038 5091 
z
M 381 4816 
L 738 5059 
Q 1019 4716 1319 4322 
L 931 4047 
Q 656 4453 381 4816 
z
" transform="scale(0.015625)"/>
      </defs>
      <use xlink:href="#MicrosoftYaHei-8d85"/>
      <use xlink:href="#MicrosoftYaHei-7eb2" transform="translate(100 0)"/>
      <use xlink:href="#MicrosoftYaHei-8bcd" transform="translate(200 0)"/>
      <use xlink:href="#MicrosoftYaHei-603b" transform="translate(300 0)"/>
      <use xlink:href="#MicrosoftYaHei-6570" transform="translate(400 0)"/>
     </g>
    </g>
   </g>
   <g id="patch_57">
    <path d="M 985.034792 384.92 
L 985.034792 139.12 
" style="fill: none; stroke: #cccccc; stroke-width: 0.8; stroke-linejoin: miter; stroke-linecap: square"/>
   </g>
   <g id="patch_58">
    <path d="M 985.034792 384.92 
L 1387.138125 384.92 
" style="fill: none; stroke: #cccccc; stroke-width: 0.8; stroke-linejoin: miter; stroke-linecap: square"/>
   </g>
   <g id="text_43">
    <!-- D -->
    <g style="fill: #555555" transform="translate(1021.904638 233.191605) scale(0.09 -0.09)">
     <defs>
      <path id="MicrosoftYaHei-Bold-44" d="M 559 0 
L 559 4841 
L 2231 4841 
Q 4809 4841 4809 2481 
Q 4809 1359 4087 679 
Q 3366 0 2225 0 
L 559 0 
z
M 1591 3997 
L 1591 844 
L 2153 844 
Q 2888 844 3306 1281 
Q 3725 1719 3725 2466 
Q 3725 3188 3287 3592 
Q 2850 3997 2150 3997 
L 1591 3997 
z
" transform="scale(0.015625)"/>
     </defs>
     <use xlink:href="#MicrosoftYaHei-Bold-44"/>
    </g>
   </g>
   <g id="text_44">
    <!-- G -->
    <g style="fill: #555555" transform="translate(1066.332374 365.893741) scale(0.09 -0.09)">
     <defs>
      <path id="MicrosoftYaHei-Bold-47" d="M 4494 325 
Q 3784 -84 2750 -84 
Q 1594 -84 925 566 
Q 256 1216 256 2344 
Q 256 3488 992 4205 
Q 1728 4922 2931 4922 
Q 3706 4922 4284 4703 
L 4284 3725 
Q 3722 4053 2909 4053 
Q 2209 4053 1775 3597 
Q 1341 3141 1341 2394 
Q 1341 1634 1733 1209 
Q 2125 784 2803 784 
Q 3206 784 3463 909 
L 3463 1903 
L 2484 1903 
L 2484 2731 
L 4494 2731 
L 4494 325 
z
" transform="scale(0.015625)"/>
     </defs>
     <use xlink:href="#MicrosoftYaHei-Bold-47"/>
    </g>
   </g>
   <g id="text_45">
    <!-- D -->
    <g style="fill: #555555" transform="translate(1160.369973 171.055215) scale(0.09 -0.09)">
     <use xlink:href="#MicrosoftYaHei-Bold-44"/>
    </g>
   </g>
   <g id="text_46">
    <!-- G -->
    <g style="fill: #555555" transform="translate(1204.797709 275.57922) scale(0.09 -0.09)">
     <use xlink:href="#MicrosoftYaHei-Bold-47"/>
    </g>
   </g>
   <g id="text_47">
    <!-- D -->
    <g style="fill: #555555" transform="translate(1298.835309 150.343084) scale(0.09 -0.09)">
     <use xlink:href="#MicrosoftYaHei-Bold-44"/>
    </g>
   </g>
   <g id="text_48">
    <!-- G -->
    <g style="fill: #555555" transform="translate(1343.263044 317.00348) scale(0.09 -0.09)">
     <use xlink:href="#MicrosoftYaHei-Bold-47"/>
    </g>
   </g>
   <g id="text_49">
    <!-- 超纲词等级分布（堆叠） -->
    <g transform="translate(1109.086458 129.12) scale(0.14 -0.14)">
     <defs>
      <path id="MicrosoftYaHei-Bold-7b49" d="M 338 1328 
L 4069 1328 
L 4069 1666 
L 125 1666 
L 125 2328 
L 2750 2328 
L 2750 2703 
L 563 2703 
L 563 3366 
L 2750 3366 
L 2750 3822 
L 3516 3822 
L 3181 4047 
Q 3247 4131 3313 4222 
L 2144 4222 
Q 2403 3938 2531 3784 
L 1950 3378 
Q 1825 3559 1463 3997 
L 1769 4222 
L 1272 4222 
Q 981 3838 656 3503 
Q 425 3753 81 4053 
Q 675 4653 1063 5347 
L 2000 5347 
Q 1847 5072 1684 4816 
L 3363 4816 
L 3363 4291 
Q 3722 4797 3975 5347 
L 4931 5347 
Q 4803 5069 4666 4816 
L 6225 4816 
L 6225 4222 
L 5231 4222 
Q 5434 4013 5625 3803 
L 5031 3397 
Q 4731 3778 4488 4047 
L 4734 4222 
L 4309 4222 
Q 4084 3881 3838 3591 
Q 3756 3653 3606 3759 
L 3606 3366 
L 5850 3366 
L 5850 2703 
L 3606 2703 
L 3606 2328 
L 6288 2328 
L 6288 1666 
L 4938 1666 
L 4938 1328 
L 6075 1328 
L 6075 653 
L 4938 653 
L 4938 16 
Q 4938 -375 4758 -576 
Q 4578 -778 4236 -790 
Q 3894 -803 3019 -809 
Q 2956 -434 2850 59 
Q 3566 28 3728 28 
Q 4069 28 4069 416 
L 4069 653 
L 2225 653 
Q 2463 341 2675 47 
L 1931 -441 
Q 1609 94 1231 653 
L 338 653 
L 338 1328 
z
" transform="scale(0.015625)"/>
      <path id="MicrosoftYaHei-Bold-7ea7" d="M 94 391 
Q 1138 528 2094 703 
Q 2069 441 2056 197 
Q 2669 1359 2763 3203 
Q 2775 3509 2781 4209 
L 2338 4209 
L 2338 4978 
L 5688 4978 
L 5688 4259 
L 5206 3272 
L 6075 3272 
L 6075 2528 
Q 5850 1472 5256 659 
Q 5750 216 6319 -16 
Q 5963 -491 5769 -809 
Q 5181 -466 4706 41 
Q 4156 -478 3406 -878 
Q 3150 -453 2888 -116 
Q 3644 234 4163 728 
Q 3738 1366 3438 2191 
Q 3244 209 2319 -866 
Q 2050 -466 1781 -178 
L 244 -466 
L 94 391 
z
M 981 3403 
Q 1213 3409 1506 3422 
Q 1713 3778 1950 4203 
L 2644 3822 
Q 1850 2491 1325 1834 
Q 1856 1884 2288 1953 
Q 2238 1622 2225 1197 
Q 1031 1078 400 928 
L 194 1634 
Q 556 1947 1044 2691 
Q 588 2653 306 2616 
L 75 3328 
Q 556 3934 1131 5341 
L 1913 5028 
Q 1350 3991 981 3403 
z
M 3594 3766 
Q 4075 2178 4675 1316 
Q 5044 1853 5200 2516 
L 4288 2516 
L 4288 3272 
L 4725 4209 
L 3600 4209 
Q 3600 3991 3594 3766 
z
" transform="scale(0.015625)"/>
      <path id="MicrosoftYaHei-Bold-5206" d="M 6350 3028 
Q 6088 2703 5750 2228 
Q 5519 2409 5303 2603 
Q 5219 606 5172 190 
Q 5125 -225 4862 -451 
Q 4600 -678 4128 -678 
Q 3484 -678 2913 -659 
Q 2856 -141 2781 284 
Q 3594 216 3956 216 
Q 4172 216 4230 408 
Q 4288 600 4325 1978 
L 2781 1978 
Q 2728 1100 2529 631 
Q 2331 163 1907 -215 
Q 1484 -594 844 -872 
Q 456 -353 194 -78 
Q 750 144 1111 414 
Q 1472 684 1630 989 
Q 1788 1294 1841 1978 
L 950 1978 
L 950 2475 
Q 794 2356 631 2247 
Q 344 2653 63 2953 
Q 1475 3947 2194 5316 
L 3031 4953 
Q 2378 3722 1391 2841 
L 5047 2841 
Q 4088 3766 3463 4903 
L 4238 5303 
Q 5038 3922 6350 3028 
z
" transform="scale(0.015625)"/>
      <path id="MicrosoftYaHei-Bold-5e03" d="M 3919 -834 
L 3050 -834 
L 3050 2034 
L 2063 2034 
L 2063 -359 
L 1200 -359 
L 1200 1641 
Q 825 1238 400 866 
Q 244 1403 113 1741 
Q 1128 2669 1731 3709 
L 200 3709 
L 200 4541 
L 2141 4541 
Q 2294 4916 2400 5303 
L 3275 5203 
Q 3169 4866 3038 4541 
L 6250 4541 
L 6250 3709 
L 2659 3709 
Q 2406 3222 2094 2766 
L 3050 2766 
L 3050 3566 
L 3919 3566 
L 3919 2766 
L 5800 2766 
L 5800 741 
Q 5800 338 5628 112 
Q 5456 -113 5178 -164 
Q 4900 -216 4306 -216 
Q 4225 291 4156 609 
Q 4456 584 4544 584 
Q 4950 584 4950 1034 
L 4950 2034 
L 3919 2034 
L 3919 -834 
z
" transform="scale(0.015625)"/>
      <path id="MicrosoftYaHei-Bold-5806" d="M 244 -166 
L 81 716 
L 813 888 
L 813 3241 
L 144 3241 
L 144 4041 
L 813 4041 
L 813 5328 
L 1644 5328 
L 1644 4041 
L 2250 4041 
L 2250 3484 
Q 2769 4325 3106 5328 
L 3906 5116 
Q 3713 4638 3484 4184 
L 4572 4184 
Q 4356 4600 4100 5022 
L 4750 5366 
Q 5094 4853 5313 4459 
L 4772 4184 
L 6213 4184 
L 6213 3472 
L 5100 3472 
L 5100 2859 
L 6125 2859 
L 6125 2184 
L 5100 2184 
L 5100 1572 
L 6125 1572 
L 6125 897 
L 5100 897 
L 5100 272 
L 6250 272 
L 6250 -441 
L 3363 -441 
L 3363 -822 
L 2550 -822 
L 2550 2594 
Q 2341 2294 2119 2003 
Q 1975 2453 1794 2822 
Q 1950 3025 2091 3241 
L 1644 3241 
L 1644 1091 
L 2344 1266 
Q 2338 1016 2344 391 
Q 1038 59 244 -166 
z
M 3363 2859 
L 4275 2859 
L 4275 3472 
L 3363 3472 
L 3363 2859 
z
M 3363 1572 
L 4275 1572 
L 4275 2184 
L 3363 2184 
L 3363 1572 
z
M 3363 272 
L 4275 272 
L 4275 897 
L 3363 897 
L 3363 272 
z
" transform="scale(0.015625)"/>
      <path id="MicrosoftYaHei-Bold-53e0" d="M 81 -247 
L 988 -247 
L 988 1297 
L 250 1297 
L 250 2209 
L 378 2209 
Q 241 2463 144 2584 
Q 672 2659 1122 2784 
Q 738 2884 375 2953 
L 553 3241 
L 338 3241 
L 338 3628 
L 3069 3628 
L 3069 3272 
Q 2781 3044 2450 2856 
Q 2722 2778 3000 2691 
L 2800 2234 
Q 2319 2419 1863 2566 
Q 1356 2350 763 2209 
L 5803 2209 
Q 5216 2406 4669 2572 
Q 4031 2338 3300 2222 
Q 3231 2378 3050 2678 
Q 3491 2728 3866 2800 
L 3288 2953 
L 3438 3241 
L 3275 3241 
L 3275 3628 
L 5156 3628 
Q 4347 3822 3400 4003 
Q 2194 3738 706 3647 
Q 600 3897 463 4134 
Q 1494 4109 2325 4197 
L 1219 4378 
L 1381 4691 
L 788 4691 
L 788 5109 
L 5394 5109 
L 5394 4641 
Q 4897 4419 4322 4241 
L 5588 4041 
L 5409 3628 
L 6013 3628 
L 6013 3272 
Q 5666 3025 5275 2831 
L 6169 2584 
L 5919 2209 
L 6150 2209 
L 6150 1322 
L 5413 1322 
L 5413 -247 
L 6319 -247 
L 6319 -672 
L 81 -672 
L 81 -247 
z
M 4306 4691 
L 1466 4691 
L 3419 4384 
Q 3916 4506 4306 4691 
z
M 5188 3241 
L 3697 3241 
L 4634 3000 
Q 4944 3109 5188 3241 
z
M 2263 3241 
L 884 3241 
Q 1341 3150 1825 3025 
Q 2059 3125 2263 3241 
z
M 5363 1759 
L 1038 1759 
L 1038 1516 
L 5363 1516 
L 5363 1759 
z
M 4638 1103 
L 1763 1103 
L 1763 872 
L 4638 872 
L 4638 1103 
z
M 1763 316 
L 4638 316 
L 4638 547 
L 1763 547 
L 1763 316 
z
M 1763 -247 
L 4638 -247 
L 4638 -9 
L 1763 -9 
L 1763 -247 
z
" transform="scale(0.015625)"/>
     </defs>
     <use xlink:href="#MicrosoftYaHei-Bold-8d85"/>
     <use xlink:href="#MicrosoftYaHei-Bold-7eb2" transform="translate(100 0)"/>
     <use xlink:href="#MicrosoftYaHei-Bold-8bcd" transform="translate(200 0)"/>
     <use xlink:href="#MicrosoftYaHei-Bold-7b49" transform="translate(300 0)"/>
     <use xlink:href="#MicrosoftYaHei-Bold-7ea7" transform="translate(400 0)"/>
     <use xlink:href="#MicrosoftYaHei-Bold-5206" transform="translate(500 0)"/>
     <use xlink:href="#MicrosoftYaHei-Bold-5e03" transform="translate(600 0)"/>
     <use xlink:href="#MicrosoftYaHei-Bold-ff08" transform="translate(700 0)"/>
     <use xlink:href="#MicrosoftYaHei-Bold-5806" transform="translate(800 0)"/>
     <use xlink:href="#MicrosoftYaHei-Bold-53e0" transform="translate(900 0)"/>
     <use xlink:href="#MicrosoftYaHei-Bold-ff09" transform="translate(1000 0)"/>
    </g>
   </g>
  </g>
  <g id="text_50">
   <!-- 豆包 vs ChatGPT — HSK 1-3 文本生成质量对比 -->
   <g transform="translate(498.402656 21.58875) scale(0.18 -0.18)">
    <defs>
     <path id="MicrosoftYaHei-Bold-8c46" d="M 325 4947 
L 6088 4947 
L 6088 4147 
L 325 4147 
L 325 4947 
z
M 138 203 
L 1747 203 
Q 1528 500 1175 941 
L 1816 1309 
L 800 1309 
L 800 3653 
L 5613 3653 
L 5613 1309 
L 4444 1309 
L 5213 1034 
L 4628 203 
L 6275 203 
L 6275 -597 
L 138 -597 
L 138 203 
z
M 4738 2072 
L 4738 2891 
L 1675 2891 
L 1675 2072 
L 4738 2072 
z
M 2706 434 
L 2316 203 
L 3594 203 
Q 3931 731 4256 1309 
L 2022 1309 
Q 2500 719 2706 434 
z
" transform="scale(0.015625)"/>
     <path id="MicrosoftYaHei-Bold-5305" d="M 3631 759 
Q 3606 947 3534 1184 
L 1738 1184 
L 1738 716 
Q 1738 97 2331 97 
L 4719 97 
Q 5250 97 5347 348 
Q 5444 600 5519 1228 
Q 5975 1053 6300 941 
Q 6128 88 6009 -167 
Q 5891 -422 5561 -559 
Q 5231 -697 4694 -697 
L 2100 -697 
Q 850 -697 850 484 
L 850 2656 
Q 659 2403 456 2166 
L 100 3172 
Q 938 4203 1369 5347 
L 2369 5347 
Q 2250 5063 2122 4791 
L 5694 4791 
L 5666 3228 
L 5625 1944 
Q 5603 1422 5400 1125 
Q 5197 828 4828 793 
Q 4459 759 3631 759 
z
M 1397 3453 
L 3994 3453 
L 3994 1600 
Q 4341 1591 4434 1591 
Q 4581 1591 4659 1687 
Q 4738 1784 4750 2136 
Q 4763 2488 4769 3991 
L 1716 3991 
Q 1563 3716 1397 3453 
z
M 3106 1891 
L 3106 2747 
L 1738 2747 
L 1738 1891 
L 3106 1891 
z
" transform="scale(0.015625)"/>
     <path id="MicrosoftYaHei-Bold-20" transform="scale(0.015625)"/>
     <path id="MicrosoftYaHei-Bold-76" d="M 3688 3456 
L 2391 0 
L 1250 0 
L 16 3456 
L 1097 3456 
L 1731 1281 
Q 1834 925 1847 684 
L 1863 684 
Q 1888 931 1984 1263 
L 2631 3456 
L 3688 3456 
z
" transform="scale(0.015625)"/>
     <path id="MicrosoftYaHei-Bold-73" d="M 369 928 
Q 888 613 1384 613 
Q 2009 613 2009 947 
Q 2009 1184 1494 1344 
Q 850 1544 609 1789 
Q 369 2034 369 2453 
Q 369 2963 781 3252 
Q 1194 3541 1863 3541 
Q 2338 3541 2778 3400 
L 2778 2606 
Q 2375 2844 1891 2844 
Q 1650 2844 1503 2758 
Q 1356 2672 1356 2531 
Q 1356 2294 1794 2147 
Q 2263 1991 2498 1862 
Q 2734 1734 2857 1525 
Q 2981 1316 2981 1041 
Q 2981 506 2553 211 
Q 2125 -84 1409 -84 
Q 847 -84 369 94 
L 369 928 
z
" transform="scale(0.015625)"/>
     <path id="MicrosoftYaHei-Bold-43" d="M 4013 175 
Q 3484 -84 2634 -84 
Q 1541 -84 898 570 
Q 256 1225 256 2316 
Q 256 3463 973 4192 
Q 1691 4922 2825 4922 
Q 3534 4922 4013 4738 
L 4013 3741 
Q 3522 4028 2900 4028 
Q 2191 4028 1766 3575 
Q 1341 3122 1341 2391 
Q 1341 1678 1744 1243 
Q 2147 809 2834 809 
Q 3481 809 4013 1122 
L 4013 175 
z
" transform="scale(0.015625)"/>
     <path id="MicrosoftYaHei-Bold-68" d="M 3725 0 
L 2719 0 
L 2719 1969 
Q 2719 2766 2138 2766 
Q 1847 2766 1658 2544 
Q 1469 2322 1469 1969 
L 1469 0 
L 459 0 
L 459 5116 
L 1469 5116 
L 1469 2938 
L 1481 2938 
Q 1878 3541 2550 3541 
Q 3725 3541 3725 2122 
L 3725 0 
z
" transform="scale(0.015625)"/>
     <path id="MicrosoftYaHei-Bold-61" d="M 544 3247 
Q 778 3378 1170 3459 
Q 1563 3541 1841 3541 
Q 3291 3541 3291 2088 
L 3291 0 
L 2331 0 
L 2331 503 
L 2319 503 
Q 1966 -84 1284 -84 
Q 794 -84 498 195 
Q 203 475 203 956 
Q 203 1950 1388 2113 
L 2338 2241 
Q 2338 2844 1709 2844 
Q 1091 2844 544 2469 
L 544 3247 
z
M 1684 1566 
Q 1138 1494 1138 1072 
Q 1138 878 1270 759 
Q 1403 641 1628 641 
Q 1938 641 2138 859 
Q 2338 1078 2338 1403 
L 2338 1650 
L 1684 1566 
z
" transform="scale(0.015625)"/>
     <path id="MicrosoftYaHei-Bold-74" d="M 2494 41 
Q 2266 -84 1803 -84 
Q 703 -84 703 1072 
L 703 2703 
L 134 2703 
L 134 3456 
L 703 3456 
L 703 4216 
L 1706 4503 
L 1706 3456 
L 2494 3456 
L 2494 2703 
L 1706 2703 
L 1706 1247 
Q 1706 694 2144 694 
Q 2313 694 2494 794 
L 2494 41 
z
" transform="scale(0.015625)"/>
     <path id="MicrosoftYaHei-Bold-50" d="M 1591 1688 
L 1591 0 
L 559 0 
L 559 4841 
L 2225 4841 
Q 4031 4841 4031 3309 
Q 4031 2566 3486 2117 
Q 2941 1669 2122 1688 
L 1591 1688 
z
M 1591 4041 
L 1591 2478 
L 2038 2478 
Q 2947 2478 2947 3269 
Q 2947 4041 2047 4041 
L 1591 4041 
z
" transform="scale(0.015625)"/>
     <path id="MicrosoftYaHei-Bold-54" d="M 3900 3997 
L 2519 3997 
L 2519 0 
L 1484 0 
L 1484 3997 
L 106 3997 
L 106 4841 
L 3900 4841 
L 3900 3997 
z
" transform="scale(0.015625)"/>
     <path id="MicrosoftYaHei-Bold-2014" d="M 6913 1497 
L 0 1497 
L 0 2209 
L 6913 2209 
L 6913 1497 
z
" transform="scale(0.015625)"/>
     <path id="MicrosoftYaHei-Bold-48" d="M 4684 0 
L 3653 0 
L 3653 1997 
L 1591 1997 
L 1591 0 
L 559 0 
L 559 4841 
L 1591 4841 
L 1591 2888 
L 3653 2888 
L 3653 4841 
L 4684 4841 
L 4684 0 
z
" transform="scale(0.015625)"/>
     <path id="MicrosoftYaHei-Bold-53" d="M 338 1219 
Q 922 734 1666 734 
Q 2088 734 2300 879 
Q 2513 1025 2513 1253 
Q 2513 1450 2344 1625 
Q 2175 1800 1453 2100 
Q 319 2581 319 3500 
Q 319 4175 833 4548 
Q 1347 4922 2194 4922 
Q 2903 4922 3384 4738 
L 3384 3769 
Q 2897 4100 2244 4100 
Q 1863 4100 1634 3961 
Q 1406 3822 1406 3588 
Q 1406 3400 1562 3242 
Q 1719 3084 2334 2816 
Q 3056 2506 3326 2162 
Q 3597 1819 3597 1344 
Q 3597 647 3103 281 
Q 2609 -84 1700 -84 
Q 869 -84 338 184 
L 338 1219 
z
" transform="scale(0.015625)"/>
     <path id="MicrosoftYaHei-Bold-4b" d="M 4506 0 
L 3200 0 
L 1734 2116 
Q 1678 2197 1606 2369 
L 1591 2369 
L 1591 0 
L 559 0 
L 559 4841 
L 1591 4841 
L 1591 2553 
L 1606 2553 
Q 1675 2703 1744 2813 
L 3131 4841 
L 4363 4841 
L 2631 2531 
L 4506 0 
z
" transform="scale(0.015625)"/>
     <path id="MicrosoftYaHei-Bold-31" d="M 2716 4947 
L 2716 0 
L 1700 0 
L 1700 3809 
Q 1513 3647 1188 3517 
Q 863 3388 591 3356 
L 591 4222 
Q 1447 4472 2072 4947 
L 2716 4947 
z
" transform="scale(0.015625)"/>
     <path id="MicrosoftYaHei-Bold-2d" d="M 2328 1497 
L 481 1497 
L 481 2209 
L 2328 2209 
L 2328 1497 
z
" transform="scale(0.015625)"/>
     <path id="MicrosoftYaHei-Bold-33" d="M 494 1053 
Q 978 691 1625 691 
Q 2034 691 2275 872 
Q 2516 1053 2516 1388 
Q 2516 1731 2230 1912 
Q 1944 2094 1428 2094 
L 997 2094 
L 997 2872 
L 1394 2872 
Q 2369 2872 2369 3528 
Q 2369 4147 1622 4147 
Q 1134 4147 675 3828 
L 675 4663 
Q 1175 4922 1853 4922 
Q 2541 4922 2969 4605 
Q 3397 4288 3397 3725 
Q 3397 2775 2434 2531 
L 2434 2516 
Q 2941 2459 3244 2145 
Q 3547 1831 3547 1381 
Q 3547 691 3042 303 
Q 2538 -84 1697 -84 
Q 950 -84 494 163 
L 494 1053 
z
" transform="scale(0.015625)"/>
     <path id="MicrosoftYaHei-Bold-751f" d="M 350 291 
L 2981 291 
L 2981 1353 
L 1131 1353 
L 1131 2197 
L 2981 2197 
L 2981 3234 
L 1469 3234 
Q 1059 2428 550 1728 
Q 356 2247 125 2803 
Q 769 3659 1219 5084 
L 2150 4853 
Q 2013 4456 1856 4078 
L 2981 4078 
L 2981 5316 
L 3919 5316 
L 3919 4078 
L 5994 4078 
L 5994 3234 
L 3919 3234 
L 3919 2197 
L 5750 2197 
L 5750 1353 
L 3919 1353 
L 3919 291 
L 6219 291 
L 6219 -578 
L 350 -578 
L 350 291 
z
" transform="scale(0.015625)"/>
     <path id="MicrosoftYaHei-Bold-6210" d="M 1606 9 
Q 1544 541 1456 922 
Q 1753 866 1925 866 
Q 2259 866 2304 1197 
Q 2350 1528 2350 2047 
L 1438 2047 
Q 1428 106 825 -859 
Q 481 -534 88 -247 
Q 606 597 613 2172 
L 613 4291 
L 3547 4291 
L 3519 5322 
L 4406 5322 
L 4416 4291 
L 5269 4291 
Q 5103 4509 4738 4941 
L 5394 5297 
Q 5613 5059 6019 4553 
L 5538 4291 
L 6225 4291 
L 6225 3541 
L 4431 3541 
Q 4463 2569 4566 1856 
Q 4978 2491 5300 3234 
L 6069 2878 
Q 5519 1663 4828 734 
Q 5063 125 5250 125 
Q 5322 125 5369 215 
Q 5416 306 5472 667 
Q 5528 1028 5531 1291 
Q 5813 1128 6331 909 
Q 6313 572 6175 22 
Q 6038 -528 5813 -681 
Q 5588 -834 5359 -834 
Q 4678 -834 4231 16 
Q 3781 -472 3281 -859 
Q 2981 -491 2631 -197 
Q 3322 300 3888 953 
Q 3659 1891 3578 3541 
L 1438 3541 
L 1438 2803 
L 3219 2803 
Q 3219 2709 3181 1714 
Q 3144 719 3012 491 
Q 2881 263 2673 117 
Q 2466 -28 1606 9 
z
" transform="scale(0.015625)"/>
     <path id="MicrosoftYaHei-Bold-8d28" d="M 1706 3847 
L 3400 3847 
L 3400 4313 
Q 2384 4256 1475 4228 
L 1475 2309 
Q 1475 191 781 -853 
Q 519 -578 81 -209 
Q 625 684 625 2347 
L 625 5016 
Q 3150 4997 5763 5266 
L 6150 4497 
L 4256 4363 
L 4256 3847 
L 6038 3847 
L 6038 3141 
L 4256 3141 
L 4256 2716 
L 5825 2716 
L 5825 541 
L 5013 541 
L 5013 2009 
L 2700 2009 
L 2700 541 
L 1888 541 
L 1888 2716 
L 3400 2716 
L 3400 3141 
L 1706 3141 
L 1706 3847 
z
M 3488 1778 
L 4363 1778 
Q 4347 1203 4197 772 
Q 5091 431 6275 -84 
L 5769 -834 
Q 4819 -297 3869 166 
Q 3269 -522 1756 -859 
Q 1538 -428 1331 -128 
Q 2506 119 2979 478 
Q 3453 838 3488 1778 
z
" transform="scale(0.015625)"/>
     <path id="MicrosoftYaHei-Bold-91cf" d="M 725 5103 
L 5675 5103 
L 5675 3416 
L 725 3416 
L 725 5103 
z
M 4825 4666 
L 1575 4666 
L 1575 4447 
L 4825 4447 
L 4825 4666 
z
M 4825 3853 
L 4825 4072 
L 1575 4072 
L 1575 3853 
L 4825 3853 
z
M 138 3209 
L 6288 3209 
L 6288 2747 
L 138 2747 
L 138 3209 
z
M 113 -184 
L 2781 -184 
L 2781 53 
L 506 53 
L 506 491 
L 2781 491 
L 2781 716 
L 713 716 
L 713 2534 
L 5681 2534 
L 5681 716 
L 3606 716 
L 3606 491 
L 5925 491 
L 5925 53 
L 3606 53 
L 3606 -184 
L 6300 -184 
L 6300 -647 
L 113 -647 
L 113 -184 
z
M 4881 2097 
L 3606 2097 
L 3606 1816 
L 4881 1816 
L 4881 2097 
z
M 1513 1816 
L 2781 1816 
L 2781 2097 
L 1513 2097 
L 1513 1816 
z
M 4881 1153 
L 4881 1434 
L 3606 1434 
L 3606 1153 
L 4881 1153 
z
M 1513 1153 
L 2781 1153 
L 2781 1434 
L 1513 1434 
L 1513 1153 
z
" transform="scale(0.015625)"/>
     <path id="MicrosoftYaHei-Bold-5bf9" d="M 3050 4234 
L 4850 4234 
L 4850 5309 
L 5744 5309 
L 5744 4234 
L 6319 4234 
L 6319 3409 
L 5744 3409 
L 5744 216 
Q 5744 -250 5539 -490 
Q 5334 -731 4987 -754 
Q 4641 -778 3656 -778 
Q 3594 -359 3450 147 
Q 3931 109 4409 109 
Q 4850 109 4850 516 
L 4850 3409 
L 3050 3409 
L 3050 4234 
z
M 863 3772 
L 1691 2509 
Q 1934 3206 2025 4016 
L 188 4016 
L 188 4834 
L 2900 4834 
L 2900 4028 
Q 2709 2722 2247 1669 
L 3169 278 
L 2394 -228 
L 1781 778 
Q 1269 -47 550 -684 
Q 369 -316 88 153 
Q 816 772 1278 1594 
L 181 3341 
L 863 3772 
z
M 3463 3047 
Q 4069 2278 4588 1528 
L 3844 1041 
Q 3375 1841 2813 2609 
L 3463 3047 
z
" transform="scale(0.015625)"/>
     <path id="MicrosoftYaHei-Bold-6bd4" d="M 5481 4441 
L 6294 3803 
Q 5234 2791 4119 1894 
L 4119 547 
Q 4119 153 4438 153 
L 4875 153 
Q 5119 153 5197 325 
Q 5275 497 5363 1597 
Q 5856 1409 6294 1278 
Q 6231 688 6131 248 
Q 6031 -191 5900 -358 
Q 5769 -525 5511 -617 
Q 5253 -709 4881 -709 
L 4094 -709 
Q 3194 -709 3194 247 
L 3194 5316 
L 4119 5316 
L 4119 3009 
Q 4797 3656 5481 4441 
z
M 1419 5241 
L 1419 3453 
L 2850 3453 
L 2850 2591 
L 1419 2591 
L 1419 372 
L 2869 866 
Q 2856 372 2888 -78 
Q 1500 -503 725 -922 
L 275 -184 
Q 494 -16 494 366 
L 494 5241 
L 1419 5241 
z
" transform="scale(0.015625)"/>
    </defs>
    <use xlink:href="#MicrosoftYaHei-Bold-8c46"/>
    <use xlink:href="#MicrosoftYaHei-Bold-5305" transform="translate(100 0)"/>
    <use xlink:href="#MicrosoftYaHei-Bold-20" transform="translate(200 0)"/>
    <use xlink:href="#MicrosoftYaHei-Bold-76" transform="translate(229.785156 0)"/>
    <use xlink:href="#MicrosoftYaHei-Bold-73" transform="translate(287.5 0)"/>
    <use xlink:href="#MicrosoftYaHei-Bold-20" transform="translate(336.865234 0)"/>
    <use xlink:href="#MicrosoftYaHei-Bold-43" transform="translate(366.650391 0)"/>
    <use xlink:href="#MicrosoftYaHei-Bold-68" transform="translate(433.984375 0)"/>
    <use xlink:href="#MicrosoftYaHei-Bold-61" transform="translate(498.535156 0)"/>
    <use xlink:href="#MicrosoftYaHei-Bold-74" transform="translate(556.298828 0)"/>
    <use xlink:href="#MicrosoftYaHei-Bold-47" transform="translate(597.705078 0)"/>
    <use xlink:href="#MicrosoftYaHei-Bold-50" transform="translate(674.21875 0)"/>
    <use xlink:href="#MicrosoftYaHei-Bold-54" transform="translate(739.941406 0)"/>
    <use xlink:href="#MicrosoftYaHei-Bold-20" transform="translate(802.490234 0)"/>
    <use xlink:href="#MicrosoftYaHei-Bold-2014" transform="translate(832.275391 0)"/>
    <use xlink:href="#MicrosoftYaHei-Bold-20" transform="translate(940.283203 0)"/>
    <use xlink:href="#MicrosoftYaHei-Bold-48" transform="translate(970.068359 0)"/>
    <use xlink:href="#MicrosoftYaHei-Bold-53" transform="translate(1052.197266 0)"/>
    <use xlink:href="#MicrosoftYaHei-Bold-4b" transform="translate(1112.353516 0)"/>
    <use xlink:href="#MicrosoftYaHei-Bold-20" transform="translate(1181.640625 0)"/>
    <use xlink:href="#MicrosoftYaHei-Bold-31" transform="translate(1211.425781 0)"/>
    <use xlink:href="#MicrosoftYaHei-Bold-2d" transform="translate(1273.095703 0)"/>
    <use xlink:href="#MicrosoftYaHei-Bold-33" transform="translate(1316.748047 0)"/>
    <use xlink:href="#MicrosoftYaHei-Bold-20" transform="translate(1378.417969 0)"/>
    <use xlink:href="#MicrosoftYaHei-Bold-6587" transform="translate(1408.203125 0)"/>
    <use xlink:href="#MicrosoftYaHei-Bold-672c" transform="translate(1508.203125 0)"/>
    <use xlink:href="#MicrosoftYaHei-Bold-751f" transform="translate(1608.203125 0)"/>
    <use xlink:href="#MicrosoftYaHei-Bold-6210" transform="translate(1708.203125 0)"/>
    <use xlink:href="#MicrosoftYaHei-Bold-8d28" transform="translate(1808.203125 0)"/>
    <use xlink:href="#MicrosoftYaHei-Bold-91cf" transform="translate(1908.203125 0)"/>
    <use xlink:href="#MicrosoftYaHei-Bold-5bf9" transform="translate(2008.203125 0)"/>
    <use xlink:href="#MicrosoftYaHei-Bold-6bd4" transform="translate(2108.203125 0)"/>
   </g>
  </g>
  <g id="legend_1">
   <g id="patch_59">
    <path d="M 614.705625 55.3125 
L 638.705625 55.3125 
L 638.705625 46.9125 
L 614.705625 46.9125 
z
" style="fill: #7ea8be; stroke: #ffffff; stroke-linejoin: miter"/>
   </g>
   <g id="text_51">
    <!-- 豆包 -->
    <g transform="translate(648.305625 55.3125) scale(0.12 -0.12)">
     <defs>
      <path id="MicrosoftYaHei-8c46" d="M 925 1366 
L 925 3666 
L 5456 3666 
L 5456 1366 
L 4975 1366 
L 4975 1609 
L 1406 1609 
L 1406 1366 
L 925 1366 
z
M 1406 3216 
L 1406 2059 
L 4975 2059 
L 4975 3216 
L 1406 3216 
z
M 138 -22 
L 3719 -22 
Q 4153 700 4500 1391 
L 5038 1134 
Q 4634 503 4272 -22 
L 6263 -22 
L 6263 -484 
L 138 -484 
L 138 -22 
z
M 325 4891 
L 6075 4891 
L 6075 4428 
L 325 4428 
L 325 4891 
z
M 1481 1153 
L 1906 1409 
Q 2306 866 2663 328 
L 2206 41 
Q 1838 659 1481 1153 
z
" transform="scale(0.015625)"/>
      <path id="MicrosoftYaHei-5305" d="M 1663 5334 
L 2175 5197 
Q 2038 4872 1888 4566 
L 5488 4566 
Q 5463 2334 5388 1478 
Q 5313 441 4356 447 
Q 4106 447 3469 472 
Q 3431 709 3369 991 
Q 3888 941 4288 941 
Q 4856 934 4900 1547 
Q 4969 2341 4988 4116 
L 1656 4116 
Q 1438 3716 1188 3347 
L 3788 3347 
L 3788 1522 
L 1525 1522 
L 1525 347 
Q 1525 -147 2044 -147 
L 4956 -147 
Q 5550 -147 5650 234 
Q 5744 578 5800 1153 
Q 6069 1047 6300 972 
Q 6225 416 6138 66 
Q 5981 -628 5075 -628 
L 1938 -628 
Q 1025 -628 1025 259 
L 1025 3103 
Q 719 2684 375 2309 
Q 231 2559 63 2747 
Q 1150 3928 1663 5334 
z
M 3300 2922 
L 1525 2922 
L 1525 1947 
L 3300 1947 
L 3300 2922 
z
" transform="scale(0.015625)"/>
     </defs>
     <use xlink:href="#MicrosoftYaHei-8c46"/>
     <use xlink:href="#MicrosoftYaHei-5305" transform="translate(100 0)"/>
    </g>
   </g>
   <g id="patch_60">
    <path d="M 696.305625 55.3125 
L 720.305625 55.3125 
L 720.305625 46.9125 
L 696.305625 46.9125 
z
" style="fill: #e8a87c; stroke: #ffffff; stroke-linejoin: miter"/>
   </g>
   <g id="text_52">
    <!-- ChatGPT -->
    <g transform="translate(729.905625 55.3125) scale(0.12 -0.12)">
     <defs>
      <path id="MicrosoftYaHei-43" d="M 3938 200 
Q 3403 -81 2597 -81 
Q 1556 -81 934 580 
Q 313 1241 313 2328 
Q 313 3497 1013 4209 
Q 1713 4922 2791 4922 
Q 3484 4922 3938 4725 
L 3938 4072 
Q 3419 4359 2797 4359 
Q 1988 4359 1478 3820 
Q 969 3281 969 2366 
Q 969 1497 1444 986 
Q 1919 475 2688 475 
Q 3406 475 3938 800 
L 3938 200 
z
" transform="scale(0.015625)"/>
      <path id="MicrosoftYaHei-68" d="M 3466 0 
L 2856 0 
L 2856 1988 
Q 2856 3031 2081 3031 
Q 1684 3031 1421 2726 
Q 1159 2422 1159 1959 
L 1159 0 
L 547 0 
L 547 5116 
L 1159 5116 
L 1159 2888 
L 1172 2888 
Q 1569 3538 2300 3538 
Q 3466 3538 3466 2128 
L 3466 0 
z
" transform="scale(0.015625)"/>
      <path id="MicrosoftYaHei-61" d="M 628 3216 
Q 1144 3538 1819 3538 
Q 3069 3538 3069 2225 
L 3069 0 
L 2463 0 
L 2463 534 
L 2447 534 
Q 2088 -81 1388 -81 
Q 884 -81 587 191 
Q 291 463 291 925 
Q 291 1894 1438 2053 
L 2463 2197 
Q 2463 3044 1763 3044 
Q 1141 3044 628 2625 
L 628 3216 
z
M 1653 1625 
Q 1228 1569 1067 1412 
Q 906 1256 906 975 
Q 906 728 1081 572 
Q 1256 416 1544 416 
Q 1944 416 2203 697 
Q 2463 978 2463 1403 
L 2463 1734 
L 1653 1625 
z
" transform="scale(0.015625)"/>
      <path id="MicrosoftYaHei-74" d="M 2206 34 
Q 2006 -75 1666 -75 
Q 738 -75 738 953 
L 738 2950 
L 144 2950 
L 144 3456 
L 738 3456 
L 738 4288 
L 1347 4481 
L 1347 3456 
L 2206 3456 
L 2206 2950 
L 1347 2950 
L 1347 1063 
Q 1347 722 1462 575 
Q 1578 428 1847 428 
Q 2053 428 2206 544 
L 2206 34 
z
" transform="scale(0.015625)"/>
      <path id="MicrosoftYaHei-47" d="M 4284 331 
Q 3559 -81 2647 -81 
Q 1597 -81 955 583 
Q 313 1247 313 2356 
Q 313 3478 1022 4200 
Q 1731 4922 2841 4922 
Q 3625 4922 4169 4672 
L 4169 3997 
Q 3588 4363 2784 4363 
Q 1994 4363 1481 3822 
Q 969 3281 969 2397 
Q 969 1488 1441 981 
Q 1913 475 2716 475 
Q 3269 475 3656 688 
L 3656 1997 
L 2606 1997 
L 2606 2550 
L 4284 2550 
L 4284 331 
z
" transform="scale(0.015625)"/>
      <path id="MicrosoftYaHei-50" d="M 1250 1809 
L 1250 0 
L 625 0 
L 625 4841 
L 2000 4841 
Q 2784 4841 3217 4462 
Q 3650 4084 3650 3381 
Q 3650 2669 3144 2226 
Q 2638 1784 1878 1809 
L 1250 1809 
z
M 1250 4291 
L 1250 2359 
L 1828 2359 
Q 2400 2359 2697 2617 
Q 2994 2875 2994 3356 
Q 2994 4291 1888 4291 
L 1250 4291 
z
" transform="scale(0.015625)"/>
      <path id="MicrosoftYaHei-54" d="M 3550 4284 
L 2153 4284 
L 2153 0 
L 1525 0 
L 1525 4284 
L 134 4284 
L 134 4841 
L 3550 4841 
L 3550 4284 
z
" transform="scale(0.015625)"/>
     </defs>
     <use xlink:href="#MicrosoftYaHei-43"/>
     <use xlink:href="#MicrosoftYaHei-68" transform="translate(66.894531 0)"/>
     <use xlink:href="#MicrosoftYaHei-61" transform="translate(128.466797 0)"/>
     <use xlink:href="#MicrosoftYaHei-74" transform="translate(183.740234 0)"/>
     <use xlink:href="#MicrosoftYaHei-47" transform="translate(220.996094 0)"/>
     <use xlink:href="#MicrosoftYaHei-50" transform="translate(295.361328 0)"/>
     <use xlink:href="#MicrosoftYaHei-54" transform="translate(356.542969 0)"/>
    </g>
   </g>
  </g>
 </g>
 <defs>
  <clipPath id="pff5df4c0f4">
   <rect x="25.928125" y="139.12" width="402.103333" height="245.8"/>
  </clipPath>
  <clipPath id="pe74dfe96d7">
   <rect x="505.481458" y="139.12" width="402.103333" height="245.8"/>
  </clipPath>
  <clipPath id="p6386a546dc">
   <rect x="985.034792" y="139.12" width="402.103333" height="245.8"/>
  </clipPath>
 </defs>
</svg>
